<?xml version="1.0" encoding="utf-8"?>
<!-- Generator: Adobe Illustrator 16.0.0, SVG Export Plug-In . SVG Version: 6.00 Build 0)  -->
<!DOCTYPE svg PUBLIC "-//W3C//DTD SVG 1.1//EN" "http://www.w3.org/Graphics/SVG/1.1/DTD/svg11.dtd">
<svg version="1.1" id="Layer_1" xmlns="http://www.w3.org/2000/svg" xmlns:xlink="http://www.w3.org/1999/xlink" x="0px" y="0px"
	 width="218.5px" height="137.5px" viewBox="0 0 218.5 137.5" enable-background="new 0 0 218.5 137.5" xml:space="preserve">
<path fill="#15A1D9" d="M51.846,45.609c0,0-1.267,2.145-1.56,6.239c-0.292,4.095-0.682,11.211,2.925,11.893
	c3.607,0.683,8.092,0.487,11.894-3.509c3.802-3.997,9.554-4.084,10.529-5.405c0.975-1.321-0.683-3.076-1.755-2.979l-1.073,0.098
	c0,0,2.438-1.658,3.607,1.364c1.17,3.022-2.729,3.802-5.654,5.167c-2.924,1.364-6.435,6.532-11.308,7.604
	c-4.875,1.072-10.821-0.292-11.016-7.701C48.239,50.97,50.871,47.363,51.846,45.609"/>
<path fill="#15A1D9" d="M68.224,56.006c0,0,9.066-6.888,6.629-11.178c-2.438-4.29-17.255-5.849-24.859-5.849
	c-7.604,0-25.347,2.925-34.999,18.133C5.345,72.32,8.562,85.871,10.122,89.965c1.56,4.095,6.336,11.991,11.601,16.866
	c0,0-15.988-11.309-16.085-28.857C5.54,60.427,17.531,44.926,28.937,40.442c11.406-4.484,23.494-4.679,30.026-3.899
	c6.531,0.78,11.22,2.68,14.525,3.899c3.965,1.462,5.459,5.947,2.632,9.066C73.293,52.628,68.224,56.006,68.224,56.006"/>
<path fill="#15A1D9" d="M49.214,65.106c0,0-3.412,8.774-11.991,10.529c-8.579,1.754-10.03,2.437-11.888,5.557
	c-1.858,3.12-3.515,4.289-5.075,5.654c-1.56,1.364-6.044,5.654,3.314,14.721c0,0-7.116-9.018-0.39-13.015s5.557-4.972,7.701-7.36
	c3.228-3.593,9.473-1.382,13.356-6.044C48.424,70.127,48.142,69.201,49.214,65.106"/>
<path fill="#15A1D9" d="M50.92,56.006c0,0-0.195,7.15,4.387,7.053c4.582-0.098,8.335-3.526,8.335-3.526S52.577,67.574,50.92,56.006"
	/>
<path fill="#15A1D9" d="M50.919,38.005c0,0,0.439,4.631-1.706,7.117c0,0,0.829-5.216-1.267-6.727
	C45.851,36.884,50.919,38.005,50.919,38.005"/>
<path fill="#15A1D9" d="M42.195,38.639c0,0,5.167,7.117,1.511,21.398c0,0,0.293-18.913-4.826-20.278
	C33.762,38.395,42.195,38.639,42.195,38.639"/>
<path fill="#15A1D9" d="M35.81,40.247c0,0,5.264,12.235,1.804,25.25c0,0-0.381-18.376-5.454-22.966
	c-2.873-2.601-1.273-1.064-1.273-1.064L35.81,40.247z"/>
<path fill="#15A1D9" d="M28.645,43.399c0,0,5.004,12.283,2.21,25.542c0,0-1.3-23.397-7.149-23.072
	C17.855,46.194,28.645,43.399,28.645,43.399"/>
<path fill="#15A1D9" d="M20.326,49.329c0,0,6.304,11.488,4.289,22.991c0,0-2.179-20.677-8.644-19.449
	C11.097,53.798,20.326,49.329,20.326,49.329"/>
<path fill="#15A1D9" d="M13.501,57.827c0,0,0.069,0.067,0.194,0.195c1.268,1.308,7.599,9.586,7.541,19.368
	c0,0-6.694-16.638-10.269-15.273L13.501,57.827z"/>
<path fill="#15A1D9" d="M8.497,68.941c0,0,8.904,4.224,10.009,14.396c0,0-4.748-12.736-11.439-10.302
	C6.353,73.295,8.497,68.941,8.497,68.941"/>
<path fill="#15A1D9" d="M7.458,80.666c0,0,6.873,1.692,8.644,6.798c0,0-4.656-5.977-8.254-3.399
	C7.458,84.344,7.458,80.666,7.458,80.666"/>
<path fill="#15A1D9" d="M10.057,92.143c0,0,1.95-2.34,5.395-2.34c0,0-4.531,2.398-4.484,3.899
	C11.013,95.203,10.057,92.143,10.057,92.143"/>
<path fill="#15A1D9" d="M9.472,90.063c0,0,2.145-5.915,7.474-7.149c0,0-5.592-0.086-9.488,3.055
	C6.921,86.4,9.472,90.063,9.472,90.063"/>
<path fill="#15A1D9" d="M7.458,78.365c0,0,6.244-3.412,14.51-2.226c0,0-4.955-2.17-14.055-2.193
	C5.826,73.939,7.458,78.365,7.458,78.365"/>
<path fill="#15A1D9" d="M7.912,68.291c0,0,7.084-1.755,17.808,3.51c0,0-4.642-7.669-15.663-7.669
	C7.912,64.132,7.912,68.291,7.912,68.291"/>
<path fill="#15A1D9" d="M12.713,58.217c0,0,12.486,0.52,20.025,9.034c0,0-5.952-10.299-17.288-12.999
	C14.086,53.928,12.713,58.217,12.713,58.217"/>
<path fill="#15A1D9" d="M18.506,49.639c0,0,14.232,3.185,21.382,12.478c0,0-6.507-12.673-17.162-15.533L18.506,49.639z"/>
<path fill="#15A1D9" d="M25.72,44.504c0,0,12.153,0.52,20.407,11.666c0,0-7.662-13.659-14.425-14.807
	C24.94,40.215,25.72,44.504,25.72,44.504"/>
<path fill="#15A1D9" d="M38.88,39.759c0,0,6.272,1.82,7.961,6.824c0,0-0.779-8.318-3.249-8.514
	C41.123,37.875,38.88,39.759,38.88,39.759"/>
<path fill="#15A1D9" d="M5.637,70.272c0,0-1.514-12.013,2.854-17.836c4.368-5.824,5.643-8.881,5.005-13.814
	c0,0,5.091,2.321,6.917,4.778c0,0-2.245-4.724-9.446-7.588c0,0,2.053,5.62-1.333,11.113S1.509,58.168,5.637,70.272"/>
<path fill="#15A1D9" d="M12.713,41.709c0,0,2.771,0.488,5.354,3.899c0,0-3.328-3.472-5.354-3.07
	C12.222,42.635,12.713,41.709,12.713,41.709"/>
<path fill="#15A1D9" d="M11.42,44.77c0,0,2.229,0.392,4.307,3.137c0,0-2.678-2.794-4.307-2.471
	C11.024,45.515,11.42,44.77,11.42,44.77"/>
<path fill="#15A1D9" d="M9.534,48.361c0,0,1.845,0.324,3.566,2.598c0,0-2.217-2.313-3.566-2.046
	C9.206,48.978,9.534,48.361,9.534,48.361"/>
<path fill="#15A1D9" d="M8.058,50.959c0,0,1.845,0.324,3.566,2.597c0,0-2.217-2.313-3.566-2.045
	C7.73,51.576,8.058,50.959,8.058,50.959"/>
<path fill="#15A1D9" d="M6.202,54.011c0,0,1.845,0.325,3.566,2.597c0,0-2.217-2.313-3.566-2.045
	C5.875,54.628,6.202,54.011,6.202,54.011"/>
<path fill="#15A1D9" d="M5.555,56.936c0,0,1.845,0.325,3.566,2.598c0,0-2.217-2.313-3.566-2.045
	C5.228,57.552,5.555,56.936,5.555,56.936"/>
<path fill="#15A1D9" d="M4.722,59.444c0,0,1.845,0.325,3.566,2.597c0,0-2.217-2.312-3.566-2.045
	C4.395,60.061,4.722,59.444,4.722,59.444"/>
<path fill="#15A1D9" d="M27.913,124.11c1.008-3.542,6.646-5.419,11.325-5.646c4.286-0.208,8.124-3.184,9.229-4.419
	c1.104-1.235-3.933-4.81-9.165-6.499c-5.007-1.617-12.218-4.419-12.218-4.419c6.217,2.333,8.969,0.844,15.988,3.704
	c7.019,2.859,9.359,6.889,9.359,6.889s1,0.007-4.354,3.704c-6.15,4.249-9.952,1.86-15.338,3.835
	c-6.278,2.302-4.549,7.214-4.549,7.214S27.198,126.626,27.913,124.11"/>
<path fill="#15A1D9" d="M30.789,122.916c0,0,1.211,3.589,2.096,6.482c1.073,3.51,0.78,2.925,0.78,2.925s-6.84-2.504-9.408-8.481
	c-2.827-6.58-2.486-15.402-2.486-15.402s-1.608,9.554,0.878,16.231c2.485,6.678,13.892,11.255,13.892,11.255
	S33.47,125.256,30.789,122.916"/>
<path fill="#15A1D9" d="M46.046,116.726c0,0-6.873-8.871-16.768-11.211c0,0,10.708,4.039,15.208,12.04
	c0.438,0.779,1.56-0.634,1.56-0.634V116.726z"/>
<path fill="#15A1D9" d="M27.084,106.831c0,0,7.019,2.291,11.065,6.775c2.842,3.15,3.459,5.313,3.459,5.313h-1.46
	C40.148,118.919,36.785,112.095,27.084,106.831"/>
<path fill="#15A1D9" d="M25.769,107.806c0,0,8.872,8.141,10.528,11.552l-1.657,0.536C34.64,119.894,28.791,111.071,25.769,107.806"
	/>
<path fill="#15A1D9" d="M24.842,108.439c0,0,1.822,9.252,6.615,11.962l-1.643,1.781C29.814,122.183,25.524,116.092,24.842,108.439"
	/>
<path fill="#15A1D9" d="M23.38,109.512c0,0,1.92,11.14,5.215,13.94l-0.446,1.511C28.149,124.963,24.111,120.235,23.38,109.512"/>
<polygon fill="#15A1D9" points="28.9,125.873 33.616,130.52 32.966,128.196 "/>
<path fill="#15A1D9" d="M34.617,80.314c0,0,0.9,2.12,0.754,6.175c-0.127,3.524-1.182,4.743-1.858,4.597
	c-0.676-0.146,0.104-2.03,0.396-3.622c0.292-1.593-0.396-4.762-0.396-4.762s0.932,4.485-1.603,7.361
	c-2.535,2.875-4.728,2.898-3.071,1.035c1.658-1.864,2.809-6.239,2.535-8.185c0,0-0.731,4.273-3.607,7.149
	c-2.876,2.875-5.654,5.117-5.508,5.361c0.146,0.243,1.221,0.585,6.558-0.634c5.336-1.219,7.968-3.168,8.163-6.093
	S36.397,82.117,34.617,80.314"/>
<path fill="#15A1D9" d="M53.114,66.764c0,0,4.167,4.874,5.069,8.53c0.792,3.205-0.097,3.705-1.218,3.314s-0.653-2.688-1.214-4.045
	c-0.735-1.779-2.246-3.363-2.246-3.363s0.926,1.804,1.364,3.851s-0.195,3.071-1.121,3.071c-0.926,0-0.378-1.346-0.633-2.682
	c-0.317-1.658-1.268-3.119-1.268-3.119s0.683,2.794,0.439,3.834c-0.244,1.04-0.731,1.234-1.366,0.942
	c-0.602-0.276-0.403-2.719-0.584-4.164c-0.117-0.933-0.39-2.026-0.39-2.026s0.244,4.419-0.487,5.232
	c-0.731,0.812-2.34,0.325-1.56-0.796c0.78-1.122,0.049-3.542,0.049-3.542s0.048,2.42-0.878,2.957
	c-0.926,0.536-1.706,1.901,1.657,3.607c3.363,1.706,7.458,2.165,9.408,2.301c1.95,0.136,3.509,0.33,3.559-0.353
	C61.741,79.632,58.037,69.347,53.114,66.764"/>
<path fill="#15A1D9" d="M61.14,48.858c0,0-1.495-2.047-0.487-3.25c1.007-1.202,2.567-0.975,3.119,0c0.423,0.747,0,2.859,0,2.859
	s1.235-1.992,0.358-3.579c-0.877-1.587-3.217-1.327-4.095-0.32C59.398,45.3,58.703,47.299,61.14,48.858"/>
<path fill="#15A1D9" d="M62.7,43.171c0,0,2.73,1.528,2.567,3.413c-0.163,1.884-0.629,2.238-1.281,2.274
	c-0.383,0.021-0.994-0.228-0.474-1.463c0.52-1.234-0.551-2.112-1.575-1.787c-1.024,0.325-0.992,1.592-0.537,2.242
	s0.267,1.089,0.877,1.479c0.683,0.434,3.15,1.021,3.64-1.251C66.469,45.512,64.292,43.627,62.7,43.171"/>
<path fill="#15A1D9" d="M69.158,108.15c-0.306-0.069-0.661-0.149-1.062-0.241c-0.801-0.186-1.785-0.436-2.934-0.753
	c-1.145-0.333-2.459-0.719-3.908-1.221c-1.448-0.503-3.034-1.105-4.73-1.834c-1.697-0.726-3.503-1.575-5.384-2.575
	c-3.756-2.008-7.831-4.588-11.91-7.873c-0.389-0.312-0.777-0.633-1.166-0.957c-0.218,0.285-0.443,0.562-0.673,0.822
	c0.401,0.32,0.802,0.636,1.203,0.943c2.102,1.617,4.198,3.058,6.246,4.339c2.048,1.279,4.061,2.378,5.983,3.341
	c1.927,0.958,3.771,1.765,5.5,2.449c1.731,0.68,3.348,1.231,4.819,1.689c1.473,0.454,2.802,0.805,3.964,1.089
	c1.165,0.273,2.159,0.484,2.969,0.638c0.404,0.076,0.763,0.142,1.072,0.2c0.31,0.051,0.57,0.094,0.78,0.128
	c0.42,0.068,0.637,0.104,0.637,0.104s-0.215-0.044-0.631-0.13C69.724,108.268,69.465,108.214,69.158,108.15"/>
<path fill="#15A1D9" d="M87.443,42.748c-0.599-1.534-1.529-3.768-2.897-6.526c-1.376-2.753-3.186-6.036-5.594-9.594
	c-2.418-3.545-5.436-7.38-9.282-11.041c-1.919-1.83-4.058-3.598-6.417-5.228c-2.358-1.629-4.944-3.112-7.743-4.34
	c-2.796-1.229-5.804-2.202-8.958-2.817c-3.153-0.622-6.445-0.897-9.781-0.82c-1.668,0.043-3.348,0.163-5.028,0.375
	c-1.675,0.21-3.385,0.505-5.053,0.967c-3.338,0.912-6.604,2.41-9.438,4.584c-2.835,2.166-5.196,4.991-6.894,8.166
	c-1.705,3.176-2.78,6.661-3.374,10.194c-0.584,3.539-0.706,7.133-0.481,10.676c0.161,2.573,0.511,5.119,0.998,7.623l1.332-1.871
	c-0.319-1.936-0.553-3.892-0.678-5.857c-0.228-3.437-0.12-6.91,0.431-10.306c0.559-3.391,1.576-6.708,3.175-9.71
	c0.797-1.499,1.732-2.919,2.806-4.219c0.535-0.652,1.112-1.265,1.709-1.855c0.602-0.586,1.24-1.133,1.895-1.654
	c2.642-2.067,5.713-3.516,8.897-4.417c1.595-0.46,3.208-0.773,4.848-0.998c1.635-0.226,3.27-0.359,4.893-0.419
	c3.247-0.11,6.45,0.124,9.523,0.695c3.073,0.571,6.015,1.473,8.763,2.631c2.749,1.158,5.302,2.572,7.64,4.136
	c2.341,1.563,4.464,3.279,6.395,5.044c3.862,3.538,6.926,7.282,9.395,10.757c2.473,3.479,4.351,6.707,5.785,9.418
	c1.438,2.712,2.429,4.916,3.07,6.431c0.64,1.517,0.928,2.347,0.928,2.347S88.042,44.284,87.443,42.748"/>
<path fill="#15A1D9" d="M91.475,50.959c0.417,3.203-1.418,5.85-3.168,5.85s-3.781-2.678-3.168-5.85
	c0.764-3.952,3.168-5.851,3.168-5.851S90.939,46.844,91.475,50.959"/>
<path fill="#15A1D9" d="M88.195,58.816c-0.608,0-1.103-0.495-1.103-1.103c0-0.608,0.495-1.103,1.103-1.103
	c0.608,0,1.103,0.495,1.103,1.103C89.298,58.322,88.804,58.816,88.195,58.816 M88.195,56.806c-0.5,0-0.908,0.407-0.908,0.908
	c0,0.501,0.407,0.908,0.908,0.908s0.908-0.407,0.908-0.908C89.104,57.213,88.696,56.806,88.195,56.806z"/>
<path fill="#15A1D9" d="M88.195,58.719v3.414c0,0.805-0.539,2.267-2.879,1.522c-2.403-0.764-0.738-2.863-0.738-2.863
	s-0.052,0.999,0.449,1.292l-0.498-0.049c0,0-0.326,0.884,0.926,1.365c1.357,0.52,2.454-0.248,2.486-1.194
	c0.038-1.096,0-3.487,0-3.487H88.195z"/>
<path fill="#15A1D9" d="M88.095,59.234c0,0-0.866,6.146,5.073,8.333C93.168,67.567,88.053,65.752,88.095,59.234"/>
<path fill="#15A1D9" d="M88.169,58.858c0,0-1.171,5.278,3.837,7.581C92.006,66.439,87.688,64.515,88.169,58.858"/>
<path fill="#15A1D9" d="M88.166,58.719c0,0-1.059,4.77,3.468,6.852C91.634,65.571,87.731,63.831,88.166,58.719"/>
<path fill="#15A1D9" d="M88.085,58.946c0,0-0.487,4.862,4.254,6.394C92.339,65.34,88.259,64.074,88.085,58.946"/>
<path fill="#15A1D9" d="M88.02,58.858c0,0-0.42,4.188,3.665,5.507C91.684,64.366,88.168,63.275,88.02,58.858"/>
<path fill="#15A1D9" d="M88.083,58.719c0,0-0.419,4.188,3.665,5.507C91.748,64.226,88.232,63.136,88.083,58.719"/>
<path fill="#15A1D9" d="M88.202,58.719c0,0-0.419,4.188,3.665,5.507C91.867,64.226,88.351,63.136,88.202,58.719"/>
<path fill="#15A1D9" d="M88.146,58.822c0,0-0.19,4.205,3.96,5.299C92.105,64.121,88.536,63.225,88.146,58.822"/>
<path fill="#15A1D9" d="M108.381,110.744c0,0.119-0.06,0.179-0.06,0.356c-0.059,0.06-0.178,0.179-0.237,0.298
	c-0.06,0.178-0.119,0.356-0.178,0.535c-0.179,0.297-0.357,0.594-0.535,0.951c-0.357,0.653-0.773,1.248-1.249,1.783
	c-0.536,0.595-0.952,1.13-1.427,1.665c-1.13,1.189-2.259,2.141-3.389,2.794c-0.773,0.476-1.367,0.833-2.081,1.07
	c-0.654,0.298-1.368,0.535-2.141,0.654c-0.535,0.06-1.07,0.119-1.605,0.119h-0.773c-0.772-0.119-1.545-0.298-2.378-0.535
	c-0.772-0.297-1.427-0.654-2.199-1.189c-0.179-0.178-0.535-0.416-0.892-0.653c-0.06-0.06-0.119-0.119-0.237-0.179l-0.12-0.119
	l-0.416-0.356l-0.178-0.179c-0.119-0.178-0.238-0.297-0.357-0.416l-0.238-0.297c-0.06-0.06-0.119-0.119-0.178-0.179l0.059-0.06
	l-0.059-0.06c-0.06-0.06-0.119-0.119-0.179-0.179l-0.357-0.476c0-0.059,0.06-0.118,0.06-0.118s0-0.06-0.06-0.06l-0.119-0.298
	c-0.416-0.772-0.713-1.604-0.892-2.615c-0.059-0.535-0.059-1.011-0.119-1.428c0-0.178,0.119-0.356,0.06-0.535v-0.118v-0.238v-0.119
	c0-0.06,0-0.06,0.059-0.179v-0.178c0.059-0.832,0.238-1.725,0.416-2.616c0.417-1.546,0.951-3.032,1.427-4.519l0.059-0.119
	c0.238-0.772,0.476-1.427,0.714-2.141c0.06-0.595,0.297-1.367,0.535-2.08c0.119-0.476,0.119-0.893,0.238-1.249
	c0-0.06,0.059-0.119,0.059-0.119v-0.178l0.06-0.298v-0.059l-0.06-0.179v-0.06v-0.119v-0.238l0.06-0.059l-0.06-0.06v-0.119v-0.06
	c0-0.06-0.059-0.119-0.059-0.119l-0.06-0.237c0-0.416-0.06-0.654-0.119-0.892c-0.238-0.595-0.594-1.012-0.713-1.13l-0.06-0.06v-0.06
	h0.06c0.059,0,0.119,0.06,0.297,0.237c0.059,0.06,0.178,0.119,0.178,0.179v-0.119l0.06,0.119c0.178,0.179,0.297,0.476,0.416,0.714
	c0,0.06,0.06,0.179,0.06,0.237c0.059,0,0.059,0.06,0.059,0.06v-0.06c-0.059-0.059-0.059-0.059-0.059-0.118
	c0-0.119,0-0.179-0.06-0.298c-0.059-0.06-0.059-0.06-0.119-0.119v-0.06l-0.06-0.178l-0.06-0.119h0.06l-0.06-0.119
	c0,0,0-0.06-0.06-0.06l-0.178-0.237h0.06c0.297,0.297,0.475,0.713,0.653,1.13c0.178,0.416,0.178,0.951,0.297,1.486
	c0.059,0.714-0.059,1.546-0.297,2.616c0.06-0.179,0.119-0.476,0.119-0.654c0.119-0.535,0.178-1.011,0.178-1.427
	c0-0.535-0.059-1.011-0.119-1.486c-0.119-0.476-0.297-0.893-0.535-1.249v-0.06c-0.06-0.179-0.297-0.535-0.417-0.595h-0.06l0.06-0.06
	l0.12,0.06l-0.179-0.118c-0.059-0.06-0.119-0.06-0.119-0.119v-0.06l-0.119-0.119l0.06,0.06v-0.06c-0.06,0-0.06,0-0.06-0.059
	l-0.357-0.18c0,0.061-0.06,0.119-0.06,0.18c-0.238,0.594-0.535,1.485-0.773,2.318c-0.238,0.416-0.297,0.713-0.357,1.011
	c-0.119,0.416-0.178,0.772-0.356,1.011c0,0.06,0,0.06-0.06,0.06c-0.06-0.06-0.06-0.119,0.06-0.477v-0.059
	c0.059-0.119,0.059-0.357,0.059-0.417l-0.059,0.179l0.059-0.237c0.06-0.238,0.178-0.535,0.357-0.892
	c0-0.298,0.059-0.535,0.178-0.714h-0.06c-0.06,0.06-0.119,0.119-0.119,0.237c0,0.179-0.12,0.416-0.357,1.13H86.68
	c0,0.119-0.12,0.356-0.179,0.535l-0.06,0.06h-0.06c0.476-1.367,0.951-2.795,1.427-4.281l0.059-0.059
	c-0.476,1.248-0.892,2.438-1.249,3.567c-0.06,0.118-0.06,0.297-0.178,0.534c-0.06,0.238-0.119,0.476-0.179,0.595v0.06h-0.059
	c0-0.06,0-0.06,0.059-0.179c-0.059,0.119-0.119,0.298-0.178,0.595l-0.119,0.119c-0.059,0.238-0.178,0.595-0.238,0.951
	c-0.119,0.238-0.178,0.417-0.178,0.595h-0.06c0-0.06,0-0.06,0.119-0.772c0.06-0.119,0.06-0.179,0.06-0.298v-0.06l-0.06,0.179H85.55
	v-0.06v-0.06c-0.179,0.654-0.238,1.368-0.476,2.081c-0.297,0.951-0.535,1.962-0.713,2.973h-0.06c0,0.298-0.178,0.595-0.238,0.951
	c-0.059,0.535-0.119,1.07-0.178,1.665h-0.06c0.06-0.476,0.119-1.367,0.357-2.318c0.059-0.654,0.238-1.368,0.416-1.962v-0.238
	c0,0-0.06-0.06,0-0.179c0.179-0.832,0.476-1.724,0.714-2.734c0.238-0.893,0.476-1.844,0.951-2.913
	c0.238-1.13,0.773-2.26,1.189-3.627h-0.06c-2.557,7.075-3.924,12.664-3.924,17.182c-0.059,0.061,0,0.477,0.179,1.012h0.06h0.059
	c0.06,0.118,0.119,0.297,0.238,0.476v0.178l0.059-0.119v0.357c0-0.119,0-0.179,0.06-0.357c-0.06-0.178-0.178-0.416-0.238-0.653
	c-0.06-0.179-0.119-0.297-0.119-0.476c-0.059-0.119-0.119-0.298-0.178-0.535h0.06c0.119,0.298,0.238,0.714,0.416,1.189
	c0.119,0.416,0.178,1.011,0.178,1.546c0,0.059,0,0.059,0.06,0.118c-0.06-0.237,0-0.535-0.06-0.772
	c-0.059-0.535-0.119-1.011-0.237-1.486l0.059-0.06h0.06l-0.06,0.119c0.119,0.178,0.119,0.535,0.238,0.892
	c0,0.297,0.06,0.654,0.179,0.892v0.06c-0.06-0.297-0.179-0.654-0.179-0.892h0.06c0,0.237,0.119,0.476,0.178,0.772v-0.118l0.06,0.118
	c-0.06,0.179-0.06,0.238-0.06,0.298c0.06,0.118,0.06,0.297,0.06,0.356h0.06c0.06,0.298,0.06,0.595,0.119,0.951
	c0.059,0.06,0,0.179,0,0.238c0,0.654,0,1.07-0.06,1.308c0.06,0.179,0,0.416,0,0.654v0.06v-0.179c0-0.119,0-0.179,0.06-0.179v0.06
	v0.06v0.119v0.178c0,0.12,0,0.179-0.119,0.298c0,0.06-0.06,0.179-0.06,0.297v0.06l-0.06,0.298c-0.059,0-0.119,0.06-0.119,0.118
	v0.119c0,0,0,0.06-0.06,0.179c-0.06,0.297-0.178,0.476-0.238,0.713h-0.06c-0.059,0.238-0.178,0.417-0.356,0.714l-0.06,0.119
	c-0.06,0-0.06,0.119-0.119,0.178l-0.06,0.061c0,0,0.06-0.061,0.06-0.119l0.06-0.06c0,0,0.06-0.06,0.06-0.119l0.119-0.179l0.06,0.06
	c-0.238,0.417-0.535,0.833-0.832,1.13c-0.238,0.237-0.595,0.416-0.892,0.654c0.06,0.059,0,0.059,0,0.059
	c-0.06,0.061-0.06,0.061-0.119,0.061c-0.06,0.059-0.119,0.118-0.238,0.118l-0.06,0.119c-0.06,0.06-0.06,0.06-0.119,0.06
	c0,0-0.059,0.06-0.119,0.06l-0.178,0.059l-0.238,0.119l-0.06,0.06l-0.178,0.06c-0.119,0.06-0.238,0.06-0.297,0.119h-0.119v0.06
	c-0.059,0-0.178,0.06-0.416,0.119h-0.059l-0.297,0.059c0,0.06-0.059,0.06-0.119,0.06s-0.12,0-0.297,0.06h-0.179
	c-0.059,0-0.119,0-0.119,0.06h-0.178h-0.06c-0.06,0.06-0.179,0.06-0.417,0.06l-0.119,0.06h-0.178H77.82l-0.238-0.06
	c-0.238,0-0.476-0.06-0.773-0.119c-0.119-0.06-0.356-0.178-0.595-0.297c-0.119-0.119-0.356-0.298-0.594-0.417
	c-0.238-0.297-0.595-0.713-0.714-1.129c-0.238-0.297-0.476-0.654-0.595-1.07c-0.297-0.714-0.475-1.546-0.594-2.497
	c-0.119-0.773-0.237-1.546-0.178-2.557c-0.059-0.356-0.059-0.476-0.059-0.595c0-0.06,0-0.119,0.059-0.356
	c0-1.189,0.059-2.438,0.238-3.806c0.119-1.308,0.297-2.557,0.654-3.983c0.416-2.438,1.13-5.173,1.962-7.907
	c1.01-3.211,1.962-6.303,3.27-9.098c0.357-0.891,0.773-1.664,1.13-2.378c0.416-0.772,0.833-1.605,1.308-2.318
	c0.892-1.605,1.843-3.092,2.794-4.459c1.308-1.665,2.438-2.973,3.687-4.221c0.417-0.357,0.832-0.654,1.07-0.952l0.238-0.178
	l0.238-0.238c0.178-0.119,0.356-0.297,0.594-0.417c0.476-0.297,0.833-0.594,1.13-0.892c0.416-0.237,0.772-0.535,1.248-0.773
	c0.238-0.119,0.535-0.297,0.833-0.356h0.059c0.06-0.06,0.119-0.06,0.238-0.06l0.06-0.06h0.119h0.119h0.06h0.119h0.119h0.059h0.119
	h0.119l0.059,0.06l0.119,0.06c0.119,0.06,0.178,0.06,0.238,0.119c0.06,0.06,0.119,0.06,0.178,0.179c0.059,0,0.059,0.059,0.059,0.059
	c0.06,0,0.06,0.06,0.06,0.06l0.06,0.06l0.06,0.06l0.059,0.059l0.06,0.06c0,0.06,0.059,0.06,0.059,0.119
	c0,0.059,0.06,0.059,0.06,0.119c0,0.059,0,0.118,0.06,0.178c0,0.059,0,0.119,0.059,0.178v0.06l0.06,0.238v0.119
	c0,0.059,0,0.059-0.119,0.119l0.059,0.06v0.178v0.119v0.119v0.178c-0.059,0.297-0.119,0.535-0.179,0.833
	c-0.119,0.238-0.178,0.535-0.237,0.772c-0.179,0.476-0.357,0.892-0.535,1.427c-0.297,0.833-0.654,1.725-1.011,2.498
	c0,0.059,0,0.059-0.06,0.118l-0.06,0.238c0.179-0.178,0.595-0.297,0.833-0.476c0.119-0.06,0.238-0.119,0.416-0.178
	c0.179-0.119,0.297-0.179,0.476-0.357l0.178-0.06c0.238-0.119,0.417-0.238,0.654-0.356l0.06,0.059
	c0.119-0.059,0.238-0.119,0.357-0.178l0.119-0.06c0.119-0.059,0.238-0.119,0.356-0.119c0.238-0.119,0.417-0.238,0.654-0.297v0.059
	l-0.297,0.119l-0.416,0.179c-0.178,0.119-0.416,0.178-0.535,0.297c-0.476,0.179-0.952,0.417-1.309,0.714l-0.059,0.059
	c-0.654,0.356-1.129,0.654-1.605,0.952c2.378-1.427,4.459-2.378,6.064-2.794c0,0,0.357-0.119,0.655-0.119v-0.06l0.178-0.059h0.356
	c-0.06,0.059,0,0.059,0,0.059v0.06h0.06c0,0,0.059,0.059,0.119,0.059c-0.06,0-0.06,0-0.119-0.059l-0.06-0.06h0.119
	c-0.059,0,0-0.059-0.059-0.059c-0.119-0.06-0.297-0.12-0.476-0.12h-0.06h-0.238c-0.06,0-0.119,0.06-0.179,0.06
	c-0.119,0-0.178,0-0.237,0.06v-0.06c0.059-0.06,0.119-0.06,0.178-0.06c0.059-0.059,0.178-0.059,0.238-0.059
	c0.179-0.06,0.297-0.06,0.476,0c0.178,0,0.356,0.059,0.535,0.179h0.06v0.059c0,0.06,0.059,0.06,0.119,0.119
	c0.059,0.06,0.059,0.119,0.059,0.119c0.06,0,0.06,0.06,0.06,0.06c0,0.06,0.06,0.06,0.06,0.119v0.06c0.06,0,0.06,0.059,0.06,0.059
	v-0.119c-0.06-0.178-0.238-0.356-0.298-0.475c-0.178-0.12-0.297-0.238-0.476-0.297c-0.178,0-0.416-0.06-0.594-0.06l-0.06,0.06V75.13
	h0.06h0.238c0.178,0,0.356,0.059,0.535,0.119h0.06l0.06,0.059c0.059,0,0.119,0.06,0.178,0.06c0.06,0.059,0.119,0.059,0.119,0.119
	h0.06c0.06,0.06,0.06,0.06,0,0.119v0.06c0.06,0,0.06,0,0.06,0.059h0.06h-0.06c0-0.059,0-0.059-0.06-0.119l0.06-0.059
	c-0.06-0.06-0.06-0.06-0.119-0.06v-0.06c-0.059,0-0.059-0.059-0.119-0.059l-0.059-0.06c-0.119,0-0.178-0.059-0.178-0.059v-0.06
	c0.119,0.06,0.297,0.119,0.476,0.237c0.06,0.06,0.06,0.179,0.06,0.238l0.119-0.179l-0.059,0.179c0,0.059,0.059,0.059,0.059,0.119
	l0.06,0.059v0.06h0.06c0,0.119,0.059,0.179,0.059,0.238v0.119h0.06c0.06,0.06,0.06,0.06,0.06,0.119
	c-0.06,0.06-0.06,0.119-0.06,0.179v0.238v0.178v0.06l-0.119,0.238v0.178l-0.06,0.119c-0.06,0.119-0.119,0.178-0.119,0.238
	l-0.06,0.06c0,0.059-0.06,0.118-0.06,0.118c-0.06,0.06-0.06,0.119-0.119,0.179c0,0.059,0,0.118-0.059,0.178v0.238v0.06v-0.12
	c0-0.059,0-0.059,0.059-0.059v0.059c0,0.06-0.059,0.12-0.059,0.179l-0.179,0.357h-0.059l-0.06,0.178c-0.06,0-0.06,0.059-0.06,0.059
	c-0.059,0.06-0.059,0.119-0.059,0.119s0,0.06-0.06,0.119l-0.178,0.119l-0.06,0.06c-0.06,0.06-0.119,0.119-0.119,0.119l-0.06,0.06
	c0,0.118-0.119,0.178-0.178,0.356c0,0-0.06,0.119-0.119,0.119c-0.06,0.06-0.06,0.119-0.119,0.119c0,0,0.06-0.06,0.238-0.238h0.06
	c-0.238,0.238-0.417,0.416-0.595,0.654c-0.179,0.06-0.297,0.178-0.535,0.297h0.059c0,0.06,0,0.06-0.059,0.06
	c-0.12,0.119-0.238,0.179-0.356,0.297c-0.179,0.179-0.417,0.357-0.536,0.417c-0.059,0.06-0.119,0.118-0.178,0.237
	c-0.119,0.06-0.297,0.179-0.416,0.238c-0.179,0.118-0.179,0.178-0.238,0.237c0,0-0.119,0.06-0.237,0.179
	c-0.773,0.654-1.665,1.248-2.497,1.843c-0.892,0.535-1.725,1.07-2.497,1.725c-0.238,0.179-0.297,0.179-0.357,0.179
	c-0.06,0.059-0.06,0.059-0.238,0.118c-0.357,0.238-0.713,0.535-1.189,0.773c-0.238,0.178-0.416,0.356-0.713,0.534h0.119
	c0.179,0.061,0.417,0.12,0.595,0.238c0.357,0.119,0.773,0.356,1.13,0.535c0.06,0,0.119,0.06,0.119,0.06
	c-0.178-0.119-0.356-0.238-0.594-0.356c-0.238-0.179-0.535-0.356-1.07-0.535l-0.06-0.06v-0.06l0.06,0.06
	c0.178,0.06,0.535,0.179,0.832,0.297c0.179,0.119,0.357,0.179,0.476,0.298c0.059,0,0.119,0.06,0.119,0.06h0.06
	c-0.178-0.119-0.476-0.238-0.535-0.357v-0.059c0.119,0.118,0.297,0.178,0.476,0.297l-0.06-0.06l0.119,0.06
	c0.119,0.06,0.178,0.06,0.238,0.06c0.119,0.118,0.238,0.178,0.297,0.178c0.238,0.06,0.535,0.238,0.654,0.298l0.178,0.178
	c0.416,0.298,0.654,0.595,0.773,0.714c0,0.06,0.119,0.119,0.179,0.179l0.238,0.237h0.06c-0.06-0.06-0.119-0.06-0.119-0.119
	c-0.119-0.059-0.119-0.059-0.119-0.118h0.059l0.06,0.06h0.06c0.06,0.059,0.178,0.237,0.476,0.534l-0.06,0.06
	c0.06,0.06,0.119,0.179,0.238,0.238c0,0.06,0.059,0.119,0.059,0.119s0.06,0,0.119,0.06l0.178,0.237V91.6
	c0.06,0.06,0.119,0.118,0.119,0.178c0.059,0,0.059,0.06,0.059,0.06l0.179,0.179c0,0.06,0,0.06,0.059,0.118l0.06,0.061
	c-0.06,0.059,0,0.118,0.059,0.297c0-0.06-0.059-0.238-0.178-0.476h0.059c0.119,0.297,0.297,0.713,0.416,1.13
	c0.12,0.178,0.12,0.416,0.179,0.713h0.06l0.059,0.179v0.237c0.06,0.06,0.06,0.119,0.06,0.238c0,0.179,0.06,0.356,0.119,0.535v0.06
	v0.476c0.06,0.179,0.119,0.535,0.06,1.129c-0.06,0.298,0,0.417,0,0.477c0,0.118-0.06,0.237-0.06,0.356
	c-0.059,0.772-0.178,1.605-0.416,2.497c-0.06,0.119-0.119,0.237-0.178,0.356v0.179c-0.059,0.119-0.059,0.237-0.119,0.356
	c-0.06,0.06-0.06,0.119-0.06,0.179l-0.357,1.07l-0.178,0.476v0.179c-0.06,0.059-0.06,0.178-0.06,0.237
	c-0.178,0.357-0.238,0.654-0.238,0.951c-0.119,0.773-0.178,1.368-0.119,1.963v0.059l0.06,0.119v0.119v0.237
	c0.059,0.238,0.178,0.416,0.178,0.595c0.059,0.06,0.059,0.119,0.119,0.179l-0.06,0.06c0,0.118,0.06,0.118,0.06,0.178
	c0.06,0.06,0.06,0.119,0.119,0.119c0.059,0.06,0.118,0.119,0.178,0.179c0,0.06,0,0.06,0.06,0.06c0,0.059,0,0.059,0.06,0.059
	c0,0.061,0,0.061,0.059,0.061v0.059v0.06c0.119,0.119,0.238,0.238,0.476,0.356c0.595,0.476,1.427,0.773,2.378,0.952
	c0.892,0.118,1.903,0.118,2.973,0c1.07-0.179,2.081-0.416,3.032-0.773c0.356-0.119,0.713-0.297,1.011-0.476
	c0.06,0,0.119-0.06,0.238-0.06l0.119-0.06h0.06c0,0,0-0.059,0.059-0.059h0.179h0.119h0.06c0.06,0,0.119,0,0.179,0.059h0.059h0.06
	v0.06h0.119c0.06,0.06,0.119,0.119,0.179,0.119h0.06c0,0.06,0.059,0.06,0.059,0.06l0.119,0.06l0.119,0.118
	c0,0.06,0.06,0.06,0.06,0.119h0.06c0,0.06,0.06,0.06,0.06,0.119l0.178,0.118c-0.059,0.061,0,0.119,0.06,0.18l0.119,0.118h0.06v0.119
	v0.06v0.06c0.059,0.06,0.059,0.06,0.119,0.119v0.059v0.06c0.059,0,0.059,0,0.059,0.06l-0.059,0.06l0.059,0.06v0.119v0.118l0.06,0.06
	v0.119v0.06C108.5,110.387,108.381,110.625,108.381,110.744 M75.382,101.707h-0.059c-0.06,0.06-0.06,0.119-0.06,0.237
	c-0.119,0.832-0.357,1.665-0.476,2.498C74.966,103.49,75.145,102.599,75.382,101.707z M76.394,120.139h-0.06
	c-0.119-0.061-0.119-0.119-0.119-0.179c-0.119-0.06-0.297-0.238-0.476-0.357c0.06,0,0.06,0.061,0.119,0.119
	C76.096,119.9,76.215,120.02,76.394,120.139z M79.248,89.281c-0.714,1.604-1.249,3.21-1.665,4.756
	c-0.595,1.486-1.011,2.973-1.368,4.399v-0.119c0.654-2.199,1.427-4.519,2.021-6.658C78.534,90.886,78.891,90.113,79.248,89.281z
	 M76.571,120.257h-0.059v-0.06C76.512,120.257,76.512,120.257,76.571,120.257z M84.004,110.625c0,0.06,0,0.06,0.059,0.238v-0.119
	L84.004,110.625z M84.598,111.993c0,0.06,0,0.06-0.06,0.118c0,0.06,0,0.119,0.06,0.179v-0.356V111.993z M87.928,91.956l-0.06,0.178
	h0.06V91.956z M88.285,92.432v0.06h0.06h0.059C88.344,92.491,88.285,92.432,88.285,92.432z M88.344,92.313h0.059H88.344v-0.06
	V92.313z M88.463,92.016c0.119,0.06,0.238,0.118,0.297,0.179c-0.06,0.059,0,0.059,0.059,0.118c0.06,0.119,0.119,0.119,0.179,0.179
	c0,0.06,0.059,0.06,0.059,0.06l0.178,0.119c0,0.059,0,0.059,0.06,0.119h0.06c0.119,0.297,0.416,0.594,0.594,1.01
	c0.238,0.416,0.356,0.833,0.476,1.249c0,0.416,0.06,0.892,0.06,1.367c0.06,0.356,0,0.773-0.06,1.189v0.119
	c-0.06,0.178-0.06,0.356-0.119,0.476c0,0.237-0.059,0.416-0.059,0.595l-0.059,0.178c0,0.179,0,0.298-0.179,0.416v0.06
	C90.782,96.475,90.841,93.799,88.463,92.016z M89.949,88.27c0.119,0.06,0.416,0.119,0.654,0.238v-0.06h0.06h0.06
	c0.06,0,0.238,0,0.476,0.119h0.119h-0.06l0.238,0.059h0.06c-0.119-0.059-0.179-0.059-0.297-0.118
	c-0.119-0.06-0.357-0.179-0.535-0.238c-0.119-0.06-0.238-0.118-0.357-0.178h-0.178l-0.238,0.118V88.27z M91.555,88.745
	c0,0,0-0.06-0.06-0.06l-0.119-0.06C91.376,88.626,91.436,88.686,91.555,88.745z M92.922,88.983c0-0.06-0.059-0.06-0.297-0.179h0.06
	v0.06c0,0,0.06,0,0.06,0.06C92.803,88.924,92.863,88.983,92.922,88.983z M96.073,83.632c0.297-0.118,0.476-0.237,0.654-0.476
	C96.549,83.275,96.43,83.514,96.073,83.632z M96.073,100.161l0.059-0.119c0-0.357,0.179-0.713,0.238-1.011
	C96.192,99.388,96.132,99.745,96.073,100.161z M100.651,110.03h-0.179h-0.416c-0.535,0-0.892-0.06-1.427-0.118
	c0.178,0.059,0.356,0.059,0.535,0.059c0.238,0.06,0.654,0.06,1.011,0.06H100.651z M102.316,76.557v0.119v0.059v-0.059V76.557
	c0.059,0,0.059-0.06,0.059-0.06v-0.119l-0.059,0.06V76.557z M104.873,109.198c-0.476,0.119-0.832,0.298-1.367,0.416
	c-0.119,0-0.179,0.06-0.297,0.06c0.178-0.06,0.416-0.119,0.654-0.178c0.654-0.179,1.427-0.417,2.081-0.714
	C105.527,108.901,105.229,109.079,104.873,109.198z M105.646,108.544l0.179-0.178c-0.06,0-0.06,0.06-0.119,0.06l-0.06,0.059V108.544
	z M107.965,110.269v-0.356c-0.06-0.06-0.06-0.06-0.06-0.119c-0.06-0.06-0.06-0.06,0-0.119l-0.06-0.06v-0.06h-0.06l-0.06-0.059
	c-0.06-0.238-0.178-0.357-0.356-0.536c-0.06,0-0.06-0.059-0.06-0.059l-0.06-0.061l-0.06-0.059h-0.06c0-0.06-0.06-0.06-0.06-0.06
	l-0.119-0.06c0-0.06,0-0.06-0.059-0.06c0,0-0.06,0-0.119-0.06h-0.06h-0.06h-0.119h-0.06h-0.06H106.3h-0.06v0.06h-0.059v0.06
	c0-0.06,0.059-0.06,0.059-0.06l0.06-0.06v0.06c0-0.06,0.059-0.06,0.059-0.06h0.06h0.06h0.06h0.119h0.06h0.06l0.06,0.06h0.06h0.059
	v0.06c0.06,0,0.119,0.06,0.119,0.06l0.119,0.118h0.06v0.061c0.06,0,0.06,0.059,0.119,0.059c0,0.061,0.059,0.061,0.059,0.061
	c0.119,0.118,0.179,0.178,0.179,0.297c0.059,0,0.059,0.06,0.119,0.119l0.06,0.118l0.06,0.06v0.06c0.06,0,0.06,0,0,0.06v0.06h0.06
	v0.06c0,0.06,0,0.06,0.06,0.06v0.059v0.119v0.119c0,0.06,0,0.178-0.06,0.297c0,0.179-0.06,0.357-0.119,0.477
	c-0.178,0.297-0.297,0.534-0.357,0.713c-0.238,0.654-0.654,1.249-1.248,2.021c0.237-0.356,0.475-0.654,0.713-0.951
	c0.297-0.476,0.476-0.892,0.594-1.249c0.119-0.237,0.297-0.476,0.357-0.772c0.06-0.06,0.06-0.119,0.06-0.179
	C107.965,110.387,107.965,110.328,107.965,110.269z"/>
<path fill="#15A1D9" d="M110.164,95.643c-0.713,1.605-1.605,3.15-2.497,4.519c-0.179,0.178,0.059-0.119,0.118-0.179
	c-0.059,0.06-0.178,0.298-0.297,0.476c-0.119,0.119-0.238,0.298-0.357,0.416c0.357-0.416,0.654-0.892,0.952-1.308
	c-0.238,0.356-0.476,0.772-0.833,1.248c-0.297,0.476-0.773,1.012-1.308,1.605c0.179-0.118,0.417-0.416,0.654-0.713
	c0.357-0.298,0.535-0.654,0.773-0.833c0.119-0.06,0,0.06-0.06,0.119c-0.059,0.179-0.178,0.416-0.238,0.416
	c-0.297,0.477-0.653,0.833-0.832,1.13c-0.357,0.356-0.594,0.714-0.951,0.951c-0.476,0.476-1.13,1.011-1.784,1.428
	c-0.178,0.118-0.416,0.178-0.535,0.237s-0.238,0.119-0.297,0.179l-0.179,0.059v0.061h-0.119c-0.178,0.059-0.357,0.118-0.535,0.178
	h-0.06h-0.059h-0.06c-0.06,0-0.178,0.06-0.238,0.06h-0.238c-0.297,0.06-0.654,0-0.892-0.179c-0.119,0-0.179,0-0.297-0.059
	c-0.06,0-0.06-0.061-0.119-0.061l-0.06-0.059l-0.118-0.119c-0.06-0.179-0.238-0.297-0.416-0.476
	c-0.119-0.357-0.357-0.773-0.417-1.189s-0.119-0.773-0.119-1.248c-0.119-0.773,0-1.546,0.06-2.26c0.06-0.772,0.179-1.486,0.357-2.26
	c0.178-0.713,0.297-1.427,0.416-2.14c0.119-0.298,0.179-0.654,0.297-1.07c0.06-0.298,0.178-0.595,0.297-0.952
	c0.297-1.367,0.654-2.734,1.011-4.102c0.059-0.119,0.059-0.297,0.059-0.476c0.06-0.179,0.179-0.357,0.179-0.476
	c0.119-0.416,0.238-0.773,0.356-1.07c0.238-0.714,0.476-1.368,0.833-2.081c0.178-0.356,0.297-0.654,0.535-0.951
	c0.178-0.357,0.417-0.654,0.714-0.951c0.297-0.238,0.594-0.476,0.892-0.654c0.416-0.119,0.713-0.179,1.07-0.179
	c0.119,0,0.297,0,0.416,0.06c0.119,0,0.179,0.06,0.238,0.06v0.06h0.06h0.059c0,0.06,0,0.06,0.06,0.06
	c0.179,0.059,0.357,0.178,0.476,0.297c0.178,0.119,0.238,0.298,0.417,0.416c0.178,0.357,0.297,0.773,0.357,1.13
	c0.119,0.356,0.119,0.773,0.178,1.07c0,0.773,0,1.427-0.06,2.141c-0.119,0.654-0.178,1.308-0.297,1.962
	c-0.178,0.772-0.356,1.546-0.476,2.318c-0.119,0.417-0.238,0.833-0.297,1.189c-0.06,0.178-0.178,0.416-0.178,0.654l-0.119,0.237
	l-0.06,0.179v0.06v0.06v-0.06v0.06c-0.416,1.546-0.832,3.092-1.249,4.578c0,0.118,0,0.297-0.059,0.356h0.059
	c0.06-0.119,0.238-0.297,0.357-0.477c0.594-0.534,1.07-1.188,1.486-1.664c0.654-0.772,1.13-1.546,1.546-2.318
	c0.119-0.179,0.238-0.356,0.297-0.535c0.06-0.06,0.119-0.179,0.238-0.357c0.119-0.178-0.119,0.119-0.059,0.119
	c0.238-0.595,0.594-1.188,0.654-1.188c-0.06,0.178-0.119,0.178-0.238,0.475c-0.06,0.119,0.059,0,0.119-0.059
	c0.06-0.179,0.119-0.356,0.179-0.356c-0.06,0.237-0.179,0.415-0.357,0.772c0.178-0.357,0.238-0.476,0.357-0.654
	c0.059-0.178,0.178-0.297,0.297-0.653c0,0-0.06,0.059-0.06,0.178c0-0.06,0.12-0.178,0.238-0.476
	c-0.118,0.298,0.06-0.059,0.179-0.297c0,0.059-0.06,0.238-0.119,0.356l0.179-0.535c0.118-0.178,0,0.356-0.119,0.595
	c0.119-0.178,0.179-0.476,0.179-0.595c0.119-0.06,0.119-0.06,0.059,0c0.357-0.772,0.535-1.249,0.535-1.249h0.477
	c-3.627,9.87-7.313,12.783-9.335,13.676c0.179-0.06,0.416-0.179,0.772-0.357c0.297-0.178,0.595-0.297,0.773-0.535
	c0.356-0.178,0.535-0.416,0.713-0.654c0.119,0,0.297-0.118,0.416-0.297c0.179-0.178,0.417-0.356,0.654-0.594
	c0.357-0.417,0.654-0.893,0.832-1.012c-0.059,0.119-0.237,0.357-0.535,0.773c0.119-0.119,0.297-0.297,0.416-0.476
	c0.119-0.238,0.297-0.357,0.357-0.535c0.119-0.119,0.297-0.356,0.535-0.654c0.297-0.356,0.416-0.654,0.535-0.893
	c0.654-0.95,1.189-1.961,1.724-2.972c0,0.06-0.119,0.237-0.178,0.476c-0.119,0.178-0.238,0.298-0.238,0.356
	c0.178-0.238,0.356-0.595,0.594-1.011c0.119-0.297,0.297-0.595,0.356-0.714c-0.06,0.238-0.237,0.477-0.356,0.773
	c0.119-0.237,0.356-0.714,0.594-1.189c0.179-0.476,0.417-1.01,0.595-1.308c-0.416,0.892-0.833,1.962-1.308,2.973
	c-0.594,1.011-1.189,2.141-1.843,3.151c-0.714,1.07-1.546,2.081-2.319,2.973c-0.892,0.832-1.784,1.546-2.735,2.021
	c0.119,0,0.595-0.238,1.07-0.595c0.297-0.178,0.535-0.356,0.772-0.654c0.357-0.178,0.535-0.476,0.773-0.653
	c0.297-0.238,0.714-0.654,1.249-1.309c0.476-0.595,1.011-1.367,1.486-2.199c0.773-1.13,1.487-2.498,2.141-3.806
	C110.877,94.037,110.937,94.097,110.164,95.643 M104.456,79.113c0-0.238,0.06-0.535,0.06-0.772c0-0.178,0.06-0.297,0.06-0.417
	v-0.178v-0.119v-0.059h0.059v-0.119c0,0,0.06-0.06,0.06-0.119c0.06-0.237,0.06-0.476,0.179-0.654
	c0.059-0.297,0.237-0.476,0.297-0.713c0.238-0.476,0.416-0.892,0.773-1.249c0.297-0.356,0.595-0.773,1.011-1.01
	c0.356-0.238,0.714-0.416,1.13-0.476h0.059c0.119-0.06,0.238-0.06,0.417-0.06h0.059c0.238,0,0.536,0.06,0.773,0.178
	c0.297,0.119,0.595,0.297,0.833,0.594c0.237,0.238,0.416,0.536,0.534,0.892c0,0.238,0.119,0.476,0.179,0.654
	c0,0.06,0,0.119-0.06,0.179l0.06,0.059v0.06v0.297c0,0.476,0,1.011-0.118,1.487c-0.119,0.535-0.298,1.129-0.476,1.605
	c-0.179,0.416-0.417,0.773-0.655,1.07c-0.237,0.298-0.475,0.535-0.654,0.654c-0.297,0.178-0.535,0.297-0.713,0.356
	c-0.119,0.06-0.119,0.06-0.238,0.119c-0.06,0,0.059,0,0-0.06c-0.119,0.119-0.298,0.179-0.298,0.06l0.12-0.06
	c0-0.06-0.12,0.06-0.12,0s0.06-0.06,0.12-0.06h-0.298h0.06h-0.119h-0.119h0.06c0-0.06-0.119,0-0.119,0
	c-0.06,0,0.059-0.119,0.119-0.179c-0.06,0-0.119,0.06-0.119,0.06h-0.06c-0.059,0-0.119,0.06-0.238,0.119
	c-2.021,0.535-1.962-1.665-1.724-3.21c0,0-0.119,0.119-0.119,0.297c0,0.178-0.06,0.475-0.06,0.594c0,0.06,0,0.297-0.06,0.476
	c0,0.178,0.06,0.357,0,0.475c0-0.059-0.059-0.178-0.059-0.356v0.356c0,0.119,0.059,0.238,0.059,0.357
	c0.06,0.06,0.119,0.179,0.06,0.237c0.06,0.179,0.178,0.357,0.238,0.477c0.06,0.178,0.119,0.297,0.238,0.356c0,0-0.06,0-0.119-0.06
	c0,0-0.06-0.06-0.06,0c0.06,0,0.119,0.06,0.238,0.179c0.06,0.06,0.178,0.118,0.178,0.118c-0.059,0-0.119-0.059-0.237-0.118
	c0.119,0.118,0.237,0.178,0.297,0.237c0.119,0.06,0.238,0.06,0.356,0.06h-0.356c-0.178-0.06-0.238-0.179-0.416-0.297
	c-0.119-0.119-0.238-0.179-0.297-0.417c-0.119-0.178-0.238-0.297-0.297-0.535c-0.059-0.356-0.059-0.772-0.059-1.189
	c0-0.416,0.059-0.773,0.059-1.189c-0.059,0.06-0.059,0.238-0.059,0.416c-0.06,0.238,0,0.476,0,0.714c-0.06,0.119-0.06,0.297,0,0.595
	c0,0.237,0.059,0.535,0.059,0.892c0.119,0.179,0.178,0.416,0.357,0.595c0.178,0.179,0.297,0.356,0.476,0.416
	c0.238,0.06,0.357,0.119,0.535,0.119h0.476c0.119,0,0.297-0.06,0.356-0.06c-0.178,0.06-0.416,0.119-0.594,0.179
	c-0.238,0-0.535-0.06-0.773-0.179c-0.119-0.06-0.238-0.06-0.297-0.179c-0.119-0.118-0.238-0.237-0.297-0.356
	c-0.178-0.297-0.238-0.595-0.297-0.892c0-0.06-0.06,0.118-0.06,0.118c0.06-0.059,0-0.118,0-0.178s-0.059-0.119-0.059-0.179
	c0.059,0.179,0.059,0.356,0.119,0.535c-0.06-0.118-0.06-0.297-0.119-0.476c-0.06-0.179-0.06-0.416-0.119-0.713v0.357v0.476
	c-0.059,0-0.119-0.179-0.178-0.238c0-0.179,0.06-0.297,0-0.476C104.456,79.411,104.396,79.292,104.456,79.113z M105.646,100.102
	c0.297-0.237,0.594-0.535,0.832-0.892C106.299,99.447,105.942,99.804,105.646,100.102z M106.834,83.989
	c0.059,0.118,0.119,0.237,0.178,0.356c0.059,0.119,0.119,0.178,0.178,0.237v0.119c0-0.059-0.06-0.237-0.238-0.476
	C106.894,84.107,106.894,84.049,106.834,83.989c-0.119-0.06-0.238-0.119-0.297-0.179C106.478,83.751,106.656,83.87,106.834,83.989z
	 M106.894,98.734c0.238-0.238,0.476-0.595,0.773-0.952c-0.119,0.119-0.238,0.298-0.297,0.417l-0.06,0.06
	c0.238-0.238,0.476-0.535,0.595-0.893l0.178-0.178c0.119-0.297,0.238-0.477,0.416-0.714c-0.178,0.237-0.297,0.417-0.416,0.654
	c0-0.06,0-0.06-0.06,0c-0.059,0.119-0.178,0.297-0.297,0.535c0,0.06-0.059,0.06-0.059,0.118
	C107.37,98.14,107.191,98.437,106.894,98.734z M107.667,97.782c0-0.059,0.059-0.059,0.059-0.118
	c0.119-0.179,0.238-0.416,0.357-0.535v0.06c-0.178,0.118-0.178,0.237-0.298,0.416C107.726,97.664,107.726,97.724,107.667,97.782z
	 M108.38,80.6c0.179-0.119,0.298-0.178,0.417-0.297c0.06,0,0.178-0.06,0.238-0.179c-0.119,0.119-0.238,0.179-0.297,0.238
	C108.618,80.422,108.439,80.541,108.38,80.6z M109.094,79.946c0.06-0.061,0.238-0.119,0.297-0.298
	c0.119-0.119,0.179-0.238,0.297-0.416C109.51,79.529,109.332,79.827,109.094,79.946z M109.807,74.654
	c0.06,0.059,0.119,0.178,0.178,0.178c0,0-0.059-0.059-0.119-0.059c0-0.06-0.06-0.119-0.119-0.178
	C109.748,74.595,109.748,74.654,109.807,74.654z"/>
<path fill="#15A1D9" d="M116.882,94.097c-0.356,0.951-0.535,1.962-0.772,2.973c0.06-0.119,0.06-0.237,0.237-0.535
	c0.06-0.356,0.179-0.832,0.357-1.486C116.704,94.81,116.882,94.513,116.882,94.097c0.06-0.298,0.179-0.595,0.298-0.893
	c0.059-0.118,0.059-0.356,0.178-0.475c0-0.06,0-0.12,0.06-0.12v-0.118v-0.06c0.06-0.06,0.06-0.119,0.06-0.179
	c0.119-0.297,0.179-0.534,0.297-0.832c0.119-0.179,0.357-0.476,0.654-0.832c0.238-0.416,0.476-0.833,0.951-1.249
	c0.179-0.238,0.356-0.416,0.595-0.595c0.179-0.118,0.298-0.178,0.535-0.237h0.297c0.06,0,0.119,0,0.179,0.06
	c0.179,0,0.238,0.118,0.298,0.237c-0.06-0.178-0.179-0.237-0.477-0.237h-0.059h-0.06h-0.238c-0.178,0.06-0.297,0.118-0.476,0.297
	c0.119-0.119,0.238-0.179,0.356-0.297h0.357h0.06h0.059h0.06c0.238,0,0.298,0.06,0.357,0.237v0.417c0,0.178-0.06,0.356-0.119,0.653
	c0,0.119-0.06,0.237-0.119,0.416v0.06v0.119c0,0-0.119,0.06-0.119,0.119c0,0.059-0.06,0.118-0.06,0.178
	c-0.356,0.595-0.534,1.309-0.713,1.665c-0.357,1.07-0.595,2.081-1.13,3.092c-0.237,0.951-0.535,2.021-0.653,2.913
	c0-0.06,0.059-0.416,0.118-0.772c0.06-0.179,0.119-0.357,0.119-0.476c0.06-0.06,0.06-0.119,0.06-0.179v-0.06
	c-0.179,0.476-0.297,1.249-0.416,1.844c-0.06,0.713-0.179,1.308-0.179,1.604c0.06-0.534,0.119-1.011,0.179-1.664
	c-0.06,0.595-0.238,1.427-0.298,2.378c-0.06,0.476,0,0.951,0,1.367c0.06,0.119,0.06,0.179-0.06,0.298c0,0.059,0,0.178,0.06,0.237
	v0.06v0.06c0,0.179,0.06,0.356,0.119,0.476c-0.06-0.06-0.06-0.179-0.119-0.297v-0.119v-0.06v-0.06v-0.06
	c-0.06-0.237,0-0.476,0-0.713c-0.06-0.416-0.06-0.893,0-1.309c0.119-1.011,0.238-2.021,0.417-2.913
	c0.178-1.07,0.534-2.2,0.892-3.211c0.356-1.07,0.713-2.14,1.07-3.329c0.059-0.238,0.118-0.416,0.297-0.654
	c0.119-0.179,0.119-0.297,0.179-0.416v-0.119l0.059-0.06c-0.059,0,0,0,0,0v-0.06v-0.178c0.06-0.238,0.179-0.476,0.238-0.714v-0.416
	c-0.119-0.06-0.06-0.119-0.119-0.179h-0.06c0,0,0-0.06-0.06-0.06h-0.059c-0.06,0-0.179,0.06-0.179,0.06
	c-0.179,0.06-0.416,0.179-0.535,0.298c-0.179,0.238-0.356,0.416-0.535,0.595c-0.238,0.237-0.416,0.416-0.595,0.653
	c-0.178,0.476-0.535,0.892-0.713,1.428c-0.119,0.178-0.357,0.416-0.477,0.653c0,0.06,0,0.119-0.059,0.237v0.12l-0.119,0.059
	c0,0.179-0.06,0.298-0.06,0.416c-0.06,0.298-0.06,0.535-0.119,0.773c-0.06,0.297-0.119,0.595-0.297,0.832
	c-0.06,0.476-0.179,1.07-0.298,1.605c0.06-0.178,0.179-0.476,0.238-0.892c0.06-0.238,0.06-0.476,0.237-0.832
	c0.06-0.179,0.119-0.417,0.179-0.773v-0.416c0.06-0.06,0.06-0.119,0.06-0.238c0,0,0-0.06,0.06-0.06v-0.118
	c0-0.06,0.06-0.238,0.06-0.298l0.06-0.059v-0.06l0.059-0.061c0.06-0.237,0.119-0.356,0.298-0.475
	c0.237-0.654,0.476-1.13,0.892-1.605c0.06-0.238,0.356-0.595,0.714-0.951c0.237-0.179,0.416-0.356,0.535-0.595
	c0.06-0.06,0.178-0.119,0.356-0.179c0.06,0,0.179,0,0.179-0.06h0.06h0.059l0.06,0.06h0.06v0.417c0,0.118-0.06,0.297-0.06,0.475
	c-0.06,0.119-0.06,0.298-0.118,0.477v0.059v0.06v-0.06v0.06h-0.06v0.238c0,0.06,0,0.178-0.06,0.237
	c-0.238,0.238-0.298,0.357-0.356,0.535c-0.119,0.417-0.298,0.833-0.357,1.189c-0.416,1.248-0.951,2.497-1.248,3.805
	c-0.356,1.309-0.595,2.557-0.714,3.865c-0.119,0.653-0.179,1.308-0.119,1.902c0.06,0.297,0.06,0.595,0,0.951v0.06l0.06,0.06v0.118
	v0.179c0.06,0.179,0.119,0.298,0.179,0.416c0.238,0.596,0.535,1.012,1.011,1.428c0.356,0.356,0.772,0.594,1.189,0.653
	c0.416,0.119,0.951,0.119,1.367,0.061c0.178,0,0.356-0.061,0.535-0.179c0.118-0.06,0.298-0.119,0.476-0.238
	c-0.357,0.238-0.654,0.356-0.951,0.417c-0.357,0.059-0.773,0.059-1.07,0h-0.238c-0.118-0.061-0.178-0.061-0.356-0.061
	c-0.06-0.06-0.237-0.118-0.476-0.237c-0.238-0.179-0.535-0.416-0.772-0.714c-0.357-0.297-0.536-0.595-0.714-1.011
	c-0.06-0.178-0.119-0.356-0.179-0.595v-0.119v-0.059l-0.06-0.06v-0.06c0-0.06,0-0.238-0.06-0.356c0-0.773,0.06-1.546,0.119-2.438
	c0.298-1.605,0.535-3.211,1.011-4.816c0.535-1.665,1.011-3.271,1.725-4.697c0.06-0.416-0.356,0.357-0.356,0.357
	c0.059-0.119,0.356-0.477,0.416-0.893v-0.119v-0.118c0.06-0.06,0.06-0.119,0.06-0.179c0.059-0.178,0.059-0.297,0.118-0.356
	c-0.118,0.179-0.118,0.356-0.178,0.595v0.119v0.059v0.06v0.06c-0.06,0.179-0.06,0.297-0.179,0.416
	c-0.237,0.357-0.356,0.893-0.476,1.249c0.06-0.356,0.179-0.773,0.297-1.13c0.179-0.179,0.298-0.416,0.357-0.654
	c0-0.178,0.06-0.416,0.06-0.653c0-0.06,0.059-0.179,0.059-0.297v-0.298c0-0.06,0-0.06-0.059-0.06h-0.06h0.06h-0.06h-0.179
	c-0.119,0.06-0.179,0.119-0.297,0.178c-0.119,0.238-0.357,0.477-0.595,0.714c0.118-0.119,0.297-0.297,0.535-0.476
	c0-0.059,0.119-0.238,0.178-0.297c0.119-0.06,0.298-0.06,0.357-0.06l0.06-0.06c-0.06,0,0,0,0,0.06v0.356
	c0,0.119-0.06,0.238-0.06,0.356c0,0.06,0,0.06,0,0c0-0.059,0-0.118,0.06-0.237v-0.237v-0.12c0,0-0.06,0,0,0h-0.06
	c0-0.118,0-0.118-0.06-0.118l0.06,0.06v0.059l0.06,0.12h-0.06h-0.06c-0.179,0.06-0.298,0.178-0.356,0.237
	c-0.179,0.119-0.238,0.237-0.298,0.356c-0.178,0.238-0.356,0.476-0.535,0.832c-0.416,0.298-0.535,0.535-0.653,0.833
	c-0.119,0.297-0.238,0.595-0.357,0.832c-0.06,0.119-0.118,0.357-0.237,0.476v0.06l-0.06,0.119c0,0.06,0,0,0,0v0.06v0.237v0.06
	c0,0.06-0.06,0.119-0.06,0.119c-0.06,0.119-0.06,0.179-0.119,0.237c0,0.179-0.119,0.357-0.119,0.595
	c-0.119,0.119-0.119,0.298-0.178,0.417c-0.119,0.237-0.179,0.416-0.179,0.594c-0.06,0.417-0.179,0.773-0.238,1.13
	c-0.059,0.476-0.059,0.833-0.118,1.189c-0.06,0.772-0.238,1.605-0.298,2.319c-0.118,0.475-0.237,0.891-0.297,1.308
	c-0.179,0.476-0.238,0.892-0.298,1.308c-0.178,0.476-0.297,0.951-0.534,1.367c-0.179,0.536-0.417,0.952-0.833,1.428
	c-0.237,0.416-0.654,0.832-1.188,1.07c-0.477,0.356-0.833,0.534-1.428,0.653c-0.178,0.06-0.416,0.119-0.595,0.119h-0.178
	c-0.06,0-0.238,0.06-0.298,0.06h-0.059h-0.06h-0.238c-0.238-0.06-0.476-0.119-0.892-0.298c-0.238-0.119-0.357-0.416-0.595-0.653
	c-0.238-0.297-0.357-0.535-0.594-0.773c-0.06-0.297-0.179-0.595-0.238-0.832c-0.059-0.535-0.059-1.07-0.119-1.546
	c0-0.476,0.06-0.951,0.06-1.308c0.059-0.535,0.059-0.952,0.178-1.368c0.119-0.951,0.297-1.843,0.356-2.676
	c0.238-0.832,0.476-1.783,0.714-2.616c0.178-0.475,0.238-0.832,0.297-1.308l0.059-0.237l0.119-0.357
	c0.059-0.178,0.059-0.476,0.178-0.654c0.237-0.891,0.416-1.664,0.654-2.556l0.06-0.119l0.06-0.179l0.118-0.297
	c0.06-0.178,0.179-0.416,0.238-0.654c0.178-0.297,0.356-0.772,0.535-1.189c0.237-0.713,0.714-1.545,1.248-2.318
	c0.179-0.356,0.417-0.713,0.714-1.07c0.178-0.416,0.535-0.773,0.832-1.07c0.119-0.119,0.476-0.356,0.654-0.476
	s0.476-0.237,0.714-0.297c0.118-0.06,0.237-0.119,0.416-0.119h0.059h0.061h0.059h0.06h0.06c0.298,0,0.595,0.06,0.892,0.119
	c0.238,0.119,0.536,0.297,0.536,0.595c0.237,0.237,0.416,0.475,0.534,0.772c0.06,0.238,0.06,0.535,0.119,0.772
	c0.06,0.179,0,0.357,0,0.536c0.356-0.298,0.892-0.595,1.367-0.833c0.238-0.237,0.535-0.416,0.833-0.535l0.06-0.06h0.06l0.178-0.059
	c0.06,0,0.119-0.06,0.238-0.06c0.06-0.061,0.179-0.119,0.416-0.179s0.654-0.119,0.892-0.119c0.416,0,0.773,0,1.07,0.06
	c0.535,0.119,0.832,0.238,1.13,0.535l0.06,0.06l0.06,0.06l0.059,0.06h0.119l0.06,0.059c0,0.179,0.06,0.179,0,0.238
	c0.237,0.179,0.298,0.356,0.357,0.535c0.118,0.356,0.237,0.714,0.237,1.07c0.06,0.118,0.06,0.179,0.06,0.298
	c0,0.059,0,0.178,0.06,0.237c0,0.237,0,0.356-0.119,0.535c0.06,0.595,0,1.308-0.119,1.962c-0.06,0.654-0.118,1.308-0.297,1.962
	c-0.119,0.595-0.416,1.249-0.595,1.962c-0.06,0.356-0.179,0.654-0.238,1.011c-0.118,0.356-0.178,0.654-0.476,0.951
	c-0.237,1.309-0.713,2.676-1.011,3.984c-0.119,0.713-0.237,1.308-0.356,2.021v0.477l-0.119,0.118v0.06v0.06v-0.06v0.06
	c0.119,0.06,0.119,0.179,0.119,0.238c0,0.119,0.06,0.237,0.06,0.416c0.06,0.119,0.06,0.297,0.119,0.356
	c0,0.06,0.059,0.119,0.059,0.119h0.06c0.119-0.06,0.179-0.179,0.298-0.237c0.06-0.119,0.119-0.238,0.178-0.357
	c0.179-0.178,0.416-0.476,0.654-0.772c0.06-0.179,0.238-0.477,0.416-0.773c0.476-0.832,0.892-1.665,1.368-2.378
	c0.356-0.833,0.772-1.725,1.188-2.497c0.654-1.368,1.189-2.795,1.725-3.983c0.119-0.298,0.178-0.477,0.178-0.477v-0.059h0.061
	l-0.061,0.059h0.061v-0.059v0.059h0.059h-0.059h0.059c-0.059,0-0.059,0-0.059-0.059v0.059v-0.059l0.059,0.059h0.179
	c-3.092,9.93-5.529,13.199-7.016,14.329c-0.714,0.535-1.486,0.477-2.319,0.356c-1.129-0.178-2.081-1.308-2.378-2.616
	c0-0.118-0.06-0.237-0.06-0.416c-0.297-3.389,1.784-8.918,3.211-12.366c0.179-0.773,0.476-2.081-0.356-2.081
	c-1.189,0-3.033,2.735-3.39,4.103c-0.06,0.179-0.119,0.297-0.178,0.476v0.119C117.061,93.383,116.941,93.739,116.882,94.097
	 M120.747,88.924v0.06 M121.044,84.465c0.06-0.06,0.238-0.179,0.535-0.238c0.179-0.179,0.416-0.237,0.595-0.297
	c0.178-0.06,0.356-0.06,0.476-0.06l0.179-0.06c-0.06,0-0.477,0.06-0.773,0.179c-0.297,0-0.356,0.059-0.654,0.297
	c-0.237,0.06-0.356,0.119-0.476,0.237C120.865,84.523,120.925,84.523,121.044,84.465z"/>
<path fill="#15A1D9" d="M147.68,93.204l-0.119,0.06c-0.595,0.595-1.249,1.13-1.843,1.725c-0.298,0.297-0.595,0.595-1.011,0.892
	c-0.298,0.298-0.595,0.595-0.951,0.892c-1.249,1.13-2.616,2.26-3.746,3.509c0-0.06,0.06-0.119,0.06-0.119
	c-0.06,0-0.06,0.06-0.06,0.119v-0.119c-0.06,0.06-0.119,0.237-0.179,0.297c0,0,0.06,0,0.06-0.06c0,0.06,0,0.06-0.06,0.119l0.06-0.06
	c-0.06,0.356-0.179,0.773-0.297,1.249v0.06c-0.06,0.06-0.119,0.178-0.119,0.297l-0.178,0.772c-0.119,0.238-0.238,0.595-0.298,0.833
	c-0.237,0.535-0.297,1.011-0.476,1.427c0.238-0.237,0.416-0.951,0.714-1.902c0-0.119,0.06-0.238,0.118-0.476
	c0,0-4.637,17.837-9.037,18.253c-0.238,0-0.476,0-0.714-0.06h-0.118c-0.119-0.06-0.238-0.119-0.476-0.179
	c-0.119,0-0.179-0.118-0.298-0.118l-0.118-0.06l-0.06-0.06h-0.061l-0.059-0.06l-0.06-0.06l-0.06-0.06
	c-0.237-0.06-0.297-0.178-0.356-0.238c-0.238-0.237-0.417-0.476-0.595-0.772c-0.416-0.535-0.535-1.07-0.772-1.665
	c-0.061-0.713-0.061-1.248-0.119-1.962c0.119-0.534,0.119-1.129,0.297-1.664c0.06-0.595,0.119-1.13,0.298-1.665
	c0.059-0.119,0.118-0.238,0.118-0.416l0.06-0.179v-0.238c0.119-0.237,0.297-0.534,0.416-0.772v-0.06l0.06-0.06l0.06-0.237
	l0.119-0.238c0.06-0.119,0.237-0.238,0.297-0.356c0.179-0.356,0.357-0.595,0.595-0.892c0.238-0.535,0.714-1.071,1.011-1.665
	c0.178-0.298,0.416-0.417,0.535-0.654h-0.594c-0.595-0.178-1.189-0.237-1.784-0.535c-0.298-0.237-0.654-0.356-0.833-0.595
	c-0.178-0.237-0.356-0.476-0.534-0.772c-0.238-0.298-0.417-0.535-0.535-0.951c-0.119-0.238-0.238-0.654-0.238-0.893
	c-0.179-0.713-0.237-1.367-0.179-2.021c0-0.594,0.119-1.248,0.119-1.843c0.179-0.595,0.237-1.07,0.476-1.665
	c0.297-1.069,0.654-2.199,0.951-3.329c0.238-1.011,0.714-2.141,1.189-3.211c0.595-1.129,1.189-2.199,1.902-3.151
	c0.714-1.069,1.546-1.902,2.557-2.794c0.535-0.654,1.486-1.189,2.438-1.546c0.595-0.179,1.011-0.298,1.486-0.416
	c0.18,0,0.417-0.06,0.654-0.06h0.06h0.119c0.119,0,0.119,0,0.119-0.06h0.06c-0.06,0,0,0-0.06,0.06l0.06-0.06
	c0.178,0.06,0.297,0.06,0.416,0.06c0.535,0.06,0.95,0.178,1.367,0.476c0.416,0.238,0.654,0.595,0.951,0.892
	c0.298,0.356,0.476,0.654,0.595,1.07c0.237,0.357,0.356,0.654,0.356,1.011c0.119,0.773,0.179,1.546,0.119,2.26
	c0.06,0.773-0.06,1.427-0.06,2.14c0,0.477-0.06,0.714-0.119,0.893c0,0.237-0.06,0.416-0.06,0.653c-0.06,0.357,0-0.178,0-0.059
	c-0.178,0.951-0.237,1.843-0.297,2.08c0.06-0.416,0.06-0.416,0.119-0.951c0-0.118-0.06,0-0.06,0.298
	c-0.06,0.237-0.06,0.416-0.06,0.416c0-0.238,0.06-0.595,0.06-1.13c0,0.476-0.06,0.772-0.06,1.011
	c-0.06,0.238-0.179,0.535-0.237,1.13v-0.356c0,0.178,0,0.416-0.06,0.832c0.06-0.476,0,0.119-0.179,0.476
	c0-0.06,0.179-0.356,0.179-0.476v0.119c-0.06,0-0.119,0.119-0.179,0.237c0,0.06,0,0.238-0.06,0.298v0.06
	c0.06,0.237,0.06,0.118,0-0.06c0.06-0.238,0.179-0.535,0.179-0.654c-0.06,0.179-0.179,0.654-0.179,0.832v0.06
	c-0.179,0.535-0.297,1.07-0.476,1.665c0.773-0.714,1.605-1.486,2.021-1.902c0.298-0.238,0.714-0.535,1.011-0.833
	c0.356-0.297,0.595-0.594,0.951-0.832c0-0.06,0-0.06,0.06-0.06c-0.238,0.179-0.476,0.416-0.595,0.595
	c-1.188,1.07-2.259,2.021-3.151,2.973c-0.178,0.119-0.237,0.179-0.297,0.297c0.06-0.118,0.119-0.178,0.297-0.297
	c0.298-0.356,0.773-0.832,1.249-1.249c0.714-0.653,1.665-1.545,2.557-2.318c0.119-0.119,0.297-0.179,0.416-0.297v-0.06
	c0.119-0.119,0.297-0.179,0.416-0.238c0.06-0.06,0.119-0.119,0.179-0.179c-0.416,0.357-1.011,0.773-1.427,1.249
	c0.416-0.416,1.129-1.011,1.724-1.486c0.119-0.06,0.119-0.119,0.179-0.119c0.179-0.118-0.06,0.06-0.237,0.298
	c-0.238,0.237-0.476,0.416-0.298,0.297c-0.297,0.238-0.654,0.535-1.07,0.773c-0.237,0.297-0.416,0.476-0.476,0.535
	c1.902-1.428,3.211-2.497,3.687-2.914v-0.118h0.178h0.06v0.059c0.06,0,0.06,0,0.119,0.06c-0.06,0-0.06,0.119-0.119,0.119
	l-0.118,0.595c0,0-1.13,0.892-2.854,2.497c-0.178,0.119-0.476,0.298-0.713,0.476c-1.07,1.011-2.26,2.021-3.211,2.913
	c-0.238,0.416-0.298,0.535-0.595,0.714l-0.416,0.476c0,0.06,0,0.119-0.06,0.179c-0.119,0.476-0.297,0.951-0.357,1.367
	c0-0.119,0.061-0.119,0.061-0.119c0.06-0.178,0.06-0.297,0.119-0.476c0.118-0.237,0.178-0.476,0.297-0.892
	c0.476-0.356,0.892-0.833,1.308-1.308c0.535-0.417,0.952-0.833,1.13-1.012c-0.178,0.238-0.416,0.535-1.13,1.13
	c0.535-0.356,1.249-1.13,1.546-1.308c0.179-0.179,0.595-0.535,1.011-0.893c0.417-0.416,0.833-0.832,1.13-1.01
	c0.951-0.833,1.962-1.784,2.854-2.498l0.119-0.118l-0.06,0.118c-0.06,0.06-0.119,0.06-0.119,0.06c0.06,0,0.06-0.06,0.119-0.06
	l0.06-0.059L147.68,93.204z M128.475,105.215c-0.178-0.06-0.356-0.179-0.415-0.297c-0.179-0.06-0.298-0.179-0.477-0.238l-0.06-0.119
	c0.06,0.119,0.298,0.298,0.536,0.476c0.118,0.06,0.356,0.179,0.535,0.179c0.178,0.119,0.297,0.179,0.416,0.237
	C129.07,105.452,128.832,105.394,128.475,105.215z M130.141,116.095c-0.119-0.059-0.238-0.119-0.357-0.297
	c-0.119-0.179-0.119-0.297-0.119-0.416c0,0.119,0,0.237,0.119,0.416C129.843,115.917,129.961,116.036,130.141,116.095z
	 M131.032,116.273h-0.119h-0.119h-0.119h-0.06h-0.118c-0.06-0.06-0.179-0.06-0.179-0.06c0.119,0.06,0.297,0.06,0.416,0.179h0.06
	c0,0,0.06,0,0.119-0.119h0.06H131.032z M134.064,109.258c-0.06,0-0.06,0.119-0.179,0.356c-0.06,0.179-0.119,0.416-0.179,0.654
	c-0.118,0.119-0.178,0.714-0.356,0.832c0-0.06,0-0.118,0.06-0.356c-0.06,0.179-0.119,0.356-0.119,0.416
	c-0.059,0.06-0.118,0.179-0.179,0.356c0,0.061-0.06,0.179-0.06,0.238c-0.059,0.179-0.059,0.356-0.118,0.535
	s-0.179,0.297-0.179,0.535c0,0,0.06-0.238,0-0.238c0,0.179-0.06,0.476-0.06,0.596v-0.298c0,0.118,0,0.237,0.06,0.416
	c-0.118,0.179-0.118,0.356-0.118,0.476v-1.07c0.059-0.178,0.059-0.356,0.118-0.535v-0.297c0-0.119,0.06-0.238,0.06-0.297
	c0.06-0.061,0.06-0.119,0.06-0.298c0.119-0.119,0.119-0.179,0.178-0.297c0.06-0.119,0.12-0.417,0.12-0.595
	c0.06-0.298,0.178-0.595,0.297-0.892c-0.119,0.118-0.119,0.118-0.179,0.118c0,0.179-0.059,0.476-0.118,0.773
	c-0.061,0.06-0.12,0.237-0.179,0.535c0,0.06-0.119,0.237-0.179,0.356c0,0.06-0.06,0.179-0.06,0.237c0,0.061-0.06,0.119-0.06,0.179
	c0,0.476-0.118,0.892-0.118,1.427c0.06,0.238,0.06,0.476,0.06,0.654c0,0.238-0.119,0.416-0.119,0.535
	c-0.119,0.238-0.119,0.416-0.238,0.535c0.119-0.238,0.238-0.535,0.298-0.832c0-0.179,0.06-0.298,0-0.417c0-0.178,0.06-0.297,0-0.476
	c0-0.297,0-0.594,0.06-0.892v-0.476c0-0.06,0-0.119,0.059-0.178c0-0.061,0-0.061,0.06-0.119c-0.06-0.179-0.06,0.059-0.118,0.059
	c0-0.178,0.118-0.356,0.118-0.416c0,0.06-0.118,0.179-0.118,0.238c0,0.178,0,0.178-0.119,0.238c0-0.061,0.119-0.061,0.119-0.119
	c0-0.179,0.059-0.238,0.059-0.357c0.119-0.118,0.119-0.356,0.179-0.653c0,0.059-0.06,0.178-0.119,0.297
	c0,0.238-0.178,0.297-0.237,0.356s0-0.118-0.06-0.178c0.06-0.298,0.06-0.535,0-0.654c-0.416,0.714-1.011,1.486-1.308,2.26
	c-0.119,0.059-0.119,0.059-0.119,0.178c-0.06,0.06-0.06,0.06-0.06,0.119v0.178c0,0.06-0.06,0.119-0.06,0.119v0.061v0.118
	c-0.06,0.06-0.06,0.119-0.119,0.119v0.178l-0.06,0.119c-0.06,0.238-0.119,0.416-0.179,0.595v0.06l-0.059,0.06v0.119v0.118v0.119
	v0.119v0.238c0.059,0,0.059,0.059,0.059,0.118l0.06,0.06v0.06h0.06v0.06c-0.06,0.06,0,0.06,0.06,0.119
	c-0.06,0.118,0,0.237,0.119,0.297c0,0.06,0.06,0.06,0.119,0.06h0.06h0.059c0.119,0,0.119,0,0.238-0.06c0,0,0.06,0,0.119-0.06
	c0.06,0-0.06,0.06,0,0.06c0.118-0.06,0.356-0.297,0.356-0.297c-0.119,0.059-0.119,0.059-0.178,0.118
	c-0.061,0.119,0.178-0.118,0.178-0.118c-0.059,0.059-0.119,0.059-0.119,0.118h-0.059v0.119h-0.061h0.061
	c0.119-0.179,0.119-0.179,0.297-0.297c0.06,0,0.119-0.06,0.119-0.119l0.06-0.06c0,0,0,0.06-0.06,0.119c0,0,0.118-0.179,0.06-0.179
	c0.059-0.06,0.059,0,0,0c0,0.06,0,0.119-0.06,0.179c0.06-0.06,0.06-0.06,0.06-0.119l0.059-0.06c0-0.06,0,0,0,0
	c0-0.06,0-0.118,0.06-0.237v-0.06c0-0.06,0-0.06,0.06-0.06c0,0-0.06,0-0.06,0.06v-0.06c0.06,0,0.06,0,0.06-0.06
	C132.875,113.42,133.529,111.101,134.064,109.258z M131.21,110.744c0,0,0.06-0.179,0.119-0.297
	C131.329,110.388,131.21,110.685,131.21,110.744z M132.161,98.675c0-0.06,0.06-0.357,0.119-0.535c-0.06,0-0.06,0.356-0.119,0.476
	V98.675z M132.28,114.906v-0.06 M137.869,89.161c-0.06-0.118-0.178-0.237-0.297-0.356c0,0.06,0,0.06,0.06,0.119
	s0.119,0.119,0.178,0.237c0.06,0.179,0.06,0.238,0.119,0.417c0,0.118,0,0.297,0.119,0.356c0,0.119,0,0.416,0.06,0.654
	c0,0.237,0,0.535-0.06,0.595c-0.119-0.06-0.119-0.179-0.119-0.417c0,0.179,0,0.417-0.06,0.535c0,0.06-0.06,0.238-0.06,0.416
	c-0.059,0.119-0.059,0.298-0.059,0.417c-0.06,0.475-0.179,0.951-0.238,1.427c0.06-0.119,0.06-0.416,0-0.416v0.475
	c-0.06,0.179-0.06,0.238-0.06,0.298V93.62v0.477c-0.06,0.297-0.119,0.416-0.178,0.595c0.118-0.357,0.118-0.833,0.118-1.368
	c0-0.178,0-0.476,0.06-0.653c0-0.119,0.06-0.238,0.06-0.477c-0.06-0.059,0-0.178,0-0.297V91.54c0.06-0.119,0.06-0.238,0.119-0.416
	c0-0.238,0-0.477-0.06-0.714c0-0.237-0.06-0.476-0.119-0.654c0-0.118,0-0.178-0.06-0.297c0,0,0-0.06,0,0c0-0.06-0.06-0.06-0.06-0.06
	s0.06-0.06,0-0.06c-0.059,0.06-0.059,0.06,0,0.119v0.059c0.06,0.061,0.06,0.061,0.06,0.12c0.06,0.237,0.119,0.475,0.179,0.713
	c-0.119,0.179,0,0.416,0,0.654c-0.06,0.237-0.06,0.356-0.119,0.535v0.297c-0.06,0.119-0.06,0.179-0.06,0.298
	c-0.06,0.535-0.06,1.129,0,1.724c0,0.356-0.06,0.595-0.118,0.951c-0.061,0.179-0.061,0.476-0.119,0.773
	c-0.06,0.179-0.179,0.476-0.237,0.535c0.118-0.356,0.296-0.654,0.296-1.07c0.061-0.356,0.061-0.714,0.119-1.189
	c0-0.297-0.059-0.713,0-1.129c-0.059-0.12,0-0.298,0-0.595v-0.179c0-0.119,0.06-0.179,0.06-0.238c0-0.178-0.06,0.06-0.118,0.06
	c0-0.06,0.059-0.297,0.118-0.416c-0.118,0.119-0.118,0.179-0.118,0.356v0.298v-0.298c0-0.118,0-0.178,0.059-0.297
	c0.06-0.237,0.06-0.476,0-0.773v0.357c-0.059,0.179-0.119,0.297-0.119,0.416c-0.178,0.119-0.118-0.179-0.178-0.179
	c0.06-0.416-0.06-0.653-0.118-0.951v-0.06c-0.12,0.119-0.238,0.179-0.417,0.416c-0.238,0.357-0.595,0.773-0.892,1.249
	c-0.476,0.833-0.951,1.902-1.368,2.913c-0.059,0.238-0.119,0.476-0.237,0.773c-0.179,0.237-0.238,0.535-0.298,0.772
	c-0.178,0.477-0.356,1.011-0.534,1.546c-0.061,0.476-0.298,1.011-0.298,1.486c-0.119,0.476-0.119,0.893-0.179,1.309
	c0,0.118-0.059,0.297-0.059,0.416v0.06h0.059c0.179-0.119,0.356-0.298,0.595-0.416c0.356-0.238,0.714-0.595,0.951-0.893
	c0.179-0.237,0.298-0.356,0.417-0.534c0.118-0.119,0.178-0.298,0.297-0.357c0.356-0.297,0.713-0.595,0.951-0.892
	c0.119-0.179,0.119-0.298,0.237-0.356c0.119-0.119-0.059,0.059,0,0c0.179-0.179,0.357-0.417,0.357-0.417l-0.119,0.179
	c-0.06,0.06,0.119-0.179,0.119-0.179c-0.06,0.06-0.119,0.119-0.179,0.238c0.179-0.238,0.179-0.238,0.298-0.535v0.119
	c0-0.06,0.06-0.119,0.06-0.238c-0.06,0.119,0-0.059,0.059-0.119c0,0-0.059,0.061-0.059,0.119c0-0.059,0.059-0.059,0.059-0.119v-0.06
	c0.119-0.059,0,0.12-0.059,0.179c0.059-0.059,0.059-0.179,0.118-0.179c0.06-0.237,0.12-0.416,0.12-0.594
	C138.404,91.6,138.227,89.875,137.869,89.161z M135.135,99.982c-0.119,0.06-0.179,0.238-0.357,0.476
	c-0.118,0.238-0.297,0.356-0.535,0.595C134.659,100.696,134.956,100.221,135.135,99.982z M139.297,84.227
	c-0.18-0.06-0.416-0.237-0.654-0.416c-0.238-0.06-0.476-0.179-0.595-0.237h-0.297h-0.119h-0.119h-0.119
	c-0.475,0.059-0.951,0.178-1.249,0.356c-0.415,0.118-0.832,0.237-1.129,0.416c0.772-0.356,1.486-0.595,2.26-0.714
	c0.178-0.059,0.237-0.059,0.356-0.059h0.297c0.119,0.059,0.298,0.059,0.476,0.178C138.82,83.93,139.117,84.107,139.297,84.227z
	 M135.669,99.15c0.061-0.179,0.179-0.356,0.298-0.476c-0.237,0.237-0.356,0.356-0.356,0.594c-0.06,0.119-0.238,0.238-0.298,0.357
	C135.372,99.507,135.551,99.388,135.669,99.15z M137.334,89.518v-0.059 M139.891,100.398l0.119-0.118
	C139.95,100.398,139.891,100.398,139.891,100.398z M140.01,100.28l-0.06,0.118l-0.06,0.06
	C139.95,100.398,139.95,100.398,140.01,100.28z M140.129,85.06c0.06,0.237,0.297,0.535,0.476,0.832
	c0.119,0.356,0.237,0.654,0.297,1.07c0.179,0.653,0.238,1.367,0.356,1.902c-0.059-0.476,0-0.832-0.178-1.249
	c-0.06-0.356-0.179-0.653-0.238-1.01c-0.118-0.238-0.178-0.595-0.297-0.833C140.426,85.476,140.188,85.237,140.129,85.06z
	 M147.025,92.135c0,0,0.119-0.119,0.238-0.179C147.145,92.016,147.085,92.075,147.025,92.135z"/>
<path fill="#15A1D9" d="M179.845,72.038l-0.059,0.06v0.059v0.178c0.059,0.119,0,0.297-0.06,0.416c0,0.179,0,0.238-0.06,0.357
	c-0.179,0.357-0.238,0.654-0.356,0.951c-0.298,0.595-0.535,1.308-0.773,1.844c-0.535,0.772-0.892,1.426-1.427,2.021
	c-0.476,0.594-1.13,1.249-1.784,1.665c-0.772,0.535-1.546,0.951-2.378,1.13c-0.832,0.238-1.665,0.476-2.438,0.535h-1.309
	c-0.356,0-0.772-0.06-1.188-0.06c-0.832-0.119-1.665-0.297-2.318-0.476c0,0.06-0.179,0.179-0.179,0.179l0.119,0.06l-1.07,3.508
	c0.237-0.476,0.297-1.011,0.535-1.308c0-0.061,0-0.061,0.06-0.061c0,0-0.06,0.119-0.119,0.477c0,0.237-0.119,0.534-0.119,0.653
	c-0.237,1.13-0.595,2.141-0.832,3.151l-0.357,1.07c0.892,0,1.665-0.06,2.735-0.06c0.179,0.06,0.06,0.06,0.237,0.06
	c0.417,0,0.773,0.06,1.189,0.06c0.119,0.06,0.298,0.06,0.595,0.119c0.119,0.059,0.356,0.059,0.595,0.118
	c0.237,0.119,0.476,0.179,0.654,0.298c0.118,0.059,0.178,0.059,0.178,0.179l0.06,0.059h0.119c0.06,0.06,0.119,0.119,0.119,0.238
	c0.059,0,0.059,0.06,0.059,0.06c0.06,0.06,0.119,0.06,0.119,0.06v0.178v0.06v0.119l-0.06,0.06c0,0.06,0,0.06,0.06,0.118v0.06v0.119
	v0.179c0,0,0,0.06-0.119,0.118c-0.059,0.179-0.118,0.298-0.118,0.357c-0.06,0.119,0,0.237,0.06,0.356
	c-0.298,0.476-0.595,0.952-0.832,1.486c-0.298,0.416-0.536,0.892-1.012,1.368c-0.356,0.476-0.892,0.832-1.427,1.188
	c-0.476,0.298-0.951,0.535-1.546,0.714c-0.653,0.179-1.13,0.297-1.902,0.356h-0.119h-0.06h-0.238c-0.059,0-0.059,0.06-0.178,0.06
	h-0.238c-0.237-0.06-0.356-0.06-0.594-0.06h-0.357c-0.118,0-0.118-0.06-0.179-0.06c-0.059,0.119-0.059,0.356-0.059,0.416
	c-0.714,2.379-1.249,4.875-1.903,7.194l-0.237,1.07l-0.237,1.011c-0.12,0.714-0.476,1.486-0.654,2.081
	c-0.179,0.714-0.357,1.368-0.595,2.199l-0.237,0.417l-0.179,0.535c0,0.179-0.06,0.297-0.179,0.416l-0.06,0.119
	c-0.119,0.118-0.119,0.356-0.178,0.535c0,0.06-0.119,0.119-0.119,0.178c-0.06,0.119-0.06,0.238-0.06,0.298l-0.238,0.535
	l-0.356,0.476c-0.06,0.119-0.119,0.237-0.179,0.356c-0.059,0.06-0.059,0.119-0.059,0.179c-0.356,0.713-0.654,1.308-1.189,1.902v0.06
	c0,0-0.06,0.06-0.119,0.06l-0.237,0.297c0,0.119-0.119,0.179-0.179,0.298c0,0.06-0.119,0.118-0.06,0.178l-0.297,0.179
	c0,0,0,0.06-0.06,0.06c0,0-2.854,3.924-6.064,3.508h-0.119l-0.119,0.06l-0.237-0.179c-0.119,0-0.179-0.06-0.238-0.06
	c-0.416-0.06-0.653-0.119-0.951-0.237c-0.179-0.06-0.237-0.119-0.298-0.179c0.119,0.179,0.417,0.297,0.596,0.297v0.06
	c0.06,0,0.06,0,0.06,0.06h-0.06h-0.179c0,0-0.06,0-0.119-0.06h-0.179h-0.059c-0.298-0.118-0.654-0.297-0.952-0.535
	c-0.237-0.237-0.595-0.534-0.713-0.772c-0.298-0.298-0.773-0.951-1.13-1.725c-0.179-0.416-0.238-0.832-0.535-1.248
	c-0.06-0.357-0.178-0.832-0.297-1.249c-0.119-1.308-0.179-2.557,0-4.103c0.178-1.13,0.476-2.438,0.892-3.745
	c0.238-1.249,0.595-2.497,1.188-3.746c0.417-1.011,0.833-2.26,1.428-3.329c1.308-2.2,2.794-4.222,4.28-5.946
	c1.368-1.248,2.438-2.438,3.687-3.448l0.179-0.238c0.059-0.476,0.119-1.069,0.237-1.604c0.298-1.368,0.595-2.676,0.893-3.865
	c-0.06-0.118,0-0.297,0.059-0.416c-0.059-0.297,0.119-0.535,0.238-1.011l0.298-0.892c0-0.06,0-0.119-0.06-0.179v-0.118l0.178-0.833
	c0-0.06,0.06-0.179,0.06-0.237l0.297-0.952c0-0.178,0-0.297,0.06-0.416s0.119-0.179,0.119-0.237c0-0.06,0.06-0.119,0.06-0.179
	c0.06-0.179,0.179-0.297,0.179-0.417l0.178-0.594v-0.179c0-0.118,0.06-0.237,0.238-0.356c-0.06-0.179,0-0.238,0-0.297
	c-0.119,0-0.238,0-0.298,0.059h-0.06c-0.237,0.06-0.416,0.06-0.594,0.119c-0.179,0.178-0.416,0.238-0.714,0.357
	c-0.356,0.178-0.714,0.356-0.951,0.535c0,0.06-0.06,0-0.06,0s0-0.119,0.06-0.119c0-0.059,0.06-0.119,0.119-0.178h0.118
	c0.06-0.059,0.119-0.119,0.119-0.119h-0.119l0.119-0.059c0.119-0.119,0.595-0.297,0.714-0.416h0.059c0-0.06,0-0.06,0.06-0.06h-0.118
	c0,0.06-0.179,0.06-0.595,0.297h-0.06c-0.119,0.059-0.237,0.119-0.297,0.178l-0.119-0.059c0.654-0.417,1.367-0.655,1.962-0.833
	c0.119-0.06,0.416-0.119,0.595-0.179c-0.06,0-0.119,0.06-0.179,0.06c-0.595,0.178-1.308,0.417-1.783,0.714
	c-0.06,0-0.179,0.059-0.298,0.119l-0.237,0.059c-0.06,0-0.06,0.06-0.06,0.06c0.06,0.059,0,0.059,0,0.118h-0.06v-0.059
	c-0.06,0-0.06,0-0.06,0.059c-0.06,0-0.119,0.06-0.119,0.06l-0.119,0.119v-0.06c-0.059,0.06-0.178,0.119-0.178,0.178
	c-0.119,0.179-0.356,0.357-0.417,0.476h-0.059c-0.06-0.059,0.237-0.356,0.237-0.356l0.179-0.178l0.06-0.06l-0.119,0.06h-0.119
	l0.06-0.06c-0.119,0.06-0.178,0.119-0.238,0.298c-0.118,0.118-0.237,0.237-0.237,0.296c-0.179,0.119-0.297,0.238-0.416,0.357
	c-0.06,0.119-0.119,0.238-0.238,0.476v0.06l0.061,0.06v0.06v0.06v0.06v0.118c-0.061,0.06-0.18,0.298-0.18,0.417v0.237v0.06
	c-0.059,0-0.059,0.06-0.059,0.06l0.059,0.06l-0.059,0.119l-0.06,0.059h-0.06l-0.179,0.06h-0.059h-0.06v-0.06
	c-0.06-0.059-0.06-0.059-0.119-0.178c-0.179-0.119-0.238-0.298-0.356-0.476c0-0.357-0.119-0.654-0.06-1.13
	c0,0.237,0.06,0.535,0.178,0.772c0,0.06-0.059,0.179-0.059,0.298c0.059,0.06,0.059,0.119,0.118,0.237v-0.178
	c-0.297-0.714-0.178-2.319,0.595-3.211c0,0,0.119-0.178,0.535-0.476v-0.119v-0.06c0-0.06,0.119-0.179,0.298-0.297l0.118-0.119
	c-0.118,0.06-0.118,0.06-0.118,0.119c0,0-0.119,0.06-0.179,0.06l-0.238,0.238c-0.059,0.178-0.356,0.356-0.476,0.535h-0.06
	c0.119-0.179,0.416-0.476,0.595-0.714c0.238-0.178,0.535-0.476,0.773-0.773l-0.119,0.178l-0.179,0.179
	c-0.179,0.178-0.416,0.297-0.773,0.595h-0.059c0-0.06,0.059-0.06,0.059-0.119c0.119-0.119,0.298-0.178,0.536-0.356
	c0.059-0.06,0.119-0.119,0.119-0.179c0,0.06-0.061,0.119-0.119,0.179l-0.119-0.06c0.119-0.06,0.178-0.119,0.297-0.297h0.06
	c0,0,0.06-0.119,0.06-0.179l-0.06,0.06l0.06-0.119c0.119-0.059,0.119-0.059,0.178-0.119c0-0.06,0.119-0.119,0.238-0.119
	l-0.119-0.059c0.179-0.059,0.238-0.179,0.298-0.179l0.06-0.06c0.06-0.059,0.179-0.118,0.237-0.297
	c0.119-0.06,0.179-0.119,0.179-0.179l0.06-0.059c0.119-0.06,0.179-0.06,0.179-0.119l0.118-0.06c0.06-0.06,0.119-0.119,0.298-0.238
	l-0.119,0.059h-0.06l0.06-0.059l0.535-0.356h0.06c0-0.06,0.059-0.06,0.059-0.119h0.06c0-0.06,0-0.06,0.12-0.119
	c0.178-0.06,0.297-0.119,0.297-0.297c0.118,0,0.237-0.059,0.297-0.119c0,0-0.06,0-0.06,0.06v-0.06
	c0.179-0.119,0.357-0.179,0.357-0.297c0.178-0.06,0.297-0.119,0.356-0.179l0.476-0.178c0.06-0.06,0.178-0.119,0.238-0.178h0.178
	c0.119-0.119,0.238-0.179,0.356-0.179c0.06-0.059,0.06-0.119,0.06-0.119c0.06-0.119,0.179-0.178,0.298-0.178l0.059-0.059
	c0.119,0,0.119,0,0.238-0.06c0.06,0,0.178-0.06,0.238-0.06c0.118-0.059,0.178-0.119,0.297-0.119h0.06V71.8c0,0,0.06-0.06,0.119-0.06
	l0.476-0.06c0.06,0,0.06-0.059,0.118-0.059c0,0,0.119-0.06,0.298-0.06l0.416-0.178l0.892-0.356l0.595-0.119
	c0.654-0.119,1.189-0.178,1.784-0.238h0.06h0.06c0.118,0,0.356,0,0.713-0.06h0.06h-0.416c-0.06,0,0-0.06,0.297-0.06h0.179
	c0.06,0,0.237-0.06-0.06-0.06h0.356c-0.297,0-0.535,0-1.248,0.06c0.237-0.06,0.832-0.06,1.308-0.06c0.06,0,0.06,0,0.179-0.059
	h-1.249c0.119,0,0.833,0,1.13-0.06c-0.06,0.06,0.06,0-0.119,0h0.119h-0.179h-0.416c0.238,0,0.654,0,0.951-0.119h-0.356
	c0.179-0.059,0.356-0.059,0.476-0.059h0.654c0.06,0,0.356-0.06,0.653-0.06c-0.297,0-0.892,0-0.059-0.06
	c0,0.06-0.357,0.06-0.298,0.06h0.416c0.119-0.06,0.06-0.06,0.119-0.06h0.476l0.416-0.06h-0.416h1.308
	c0.119-0.059-0.356,0-0.237-0.059h0.714c0.06-0.06,0.297,0,0.535-0.06h0.356c0.773,0,1.427-0.06,2.081-0.06
	c0.772,0,1.427,0,2.259,0.06h0.416c0.535,0.06,1.012,0.119,1.605,0.178c0.238,0.06,0.535,0.119,0.833,0.178
	c0.356,0.119,0.594,0.179,0.892,0.238c0.179,0.06,0.416,0.119,0.535,0.179s0.237,0.178,0.356,0.297
	c0.119,0.119,0.357,0.475,0.416,0.713C179.905,71.741,179.905,71.86,179.845,72.038 M152.437,97.069c0,0.06-0.061,0.06-0.061,0.119
	c-0.594,0.535-1.248,1.07-1.724,1.843c-0.654,0.833-1.188,1.783-1.665,2.854l-0.118,0.356l-0.06,0.416
	c-0.179,0.237-0.298,0.416-0.476,0.535c-0.119,0.535-0.298,0.951-0.356,1.249c-0.417,1.129-0.654,1.962-0.773,2.615l-0.298,1.07
	v0.06c-0.118,0.179-0.178,0.297-0.118,0.416c-0.119,0.417-0.119,0.714-0.297,0.773l0.059,0.06l-0.059-0.06
	c0.059-0.06,0.059-0.06,0.118-0.179l-0.118,0.119c-0.06,0.119-0.06,0.238-0.18,0.535v0.06c0.06,0.059,0.06,0.178,0.06,0.237h-0.06
	c0,0.179,0,0.298-0.059,0.356l-0.06,0.119l-0.06,0.06c-0.06,0-0.06,0-0.06-0.06v0.06l-0.06,0.06c0,0.476-0.06,0.832-0.118,1.189
	c0,0-0.179,1.486,0.118,2.854l0.356,0.06c0-0.119,0.061-0.237-0.06-0.356c-0.118-0.298-0.059-0.773-0.059-1.13
	c-0.119-0.179,0.059-0.476,0-0.714c0-0.118,0.059-0.237,0.059-0.356c0-0.06,0.06-0.179,0.06-0.238v-0.06v-0.059l0.061-0.06
	l-0.061,0.356v0.238c-0.06,0.118,0,0.237,0.061,0.416c-0.179,0.297-0.061,0.535-0.12,0.772c0,0.476,0.12,0.833,0.18,1.189h0.059
	c0.06-0.06,0.238-0.119,0.416-0.237c0.06-0.061,0.179-0.179,0.298-0.357c0.178-0.119,0.297-0.356,0.476-0.595
	c0.297-0.356,0.535-0.772,0.654-1.367c0.178-0.416,0.416-0.892,0.594-1.486c0.357-0.773,0.714-1.783,1.13-2.913
	c0.179-1.011,0.356-2.021,0.595-3.092c0.535-1.903,0.951-4.162,1.605-6.957C152.376,97.604,152.376,97.308,152.437,97.069z
	 M153.149,78.935c-0.476,0.476-0.832,1.01-0.773,1.546c0,0.059-0.059,0.118-0.118,0.237h0.06l-0.06,0.06
	c0,0.416-0.179,0.535-0.297,0.535c-0.06,0-0.238-0.179-0.298-0.356l-0.06,0.118c0.06,0.06,0.06,0.119,0.119,0.179l0.06,0.06
	c0.179,0.06,0.179,0.06,0.237,0.06c0,0.119,0,0.119,0.06,0.119h0.06v-0.119h0.119l-0.06-0.06l0.06-0.06v-0.06v-0.06v-0.06
	c0.06-0.118,0.06-0.178,0.06-0.237c0.059-0.06,0.119-0.179,0.059-0.238l0.061-0.237v-0.06l-0.119-0.119
	c0.119-0.238,0.178-0.356,0.238-0.476c0.059-0.119,0.178-0.238,0.237-0.356C152.853,79.232,152.971,79.113,153.149,78.935z
	 M153.804,75.546l-0.119,0.119h0.06C153.744,75.606,153.804,75.606,153.804,75.546z M157.549,76.735
	c-0.594,0.06-1.188,0.238-1.545,0.476c0.118-0.178,0.356-0.238,0.535-0.297C156.896,76.854,157.134,76.795,157.549,76.735z
	 M163.495,88.567c0.476,0,1.011,0,1.427,0.06h-0.298C164.327,88.627,163.971,88.567,163.495,88.567v0.06h0.772h0.356
	c0.595,0,1.249,0,2.022,0.059c0.653,0.06,1.427,0.179,2.08,0.298c0.179,0.06,0.357,0.118,0.536,0.118
	c0.119,0.12,0.297,0.179,0.476,0.238l0.059,0.06c0.06,0,0.06,0.06,0.06,0.06c-0.06,0.06,0,0.06,0.06,0.119
	c0.119,0.119,0.238,0.297,0.179,0.476c0,0,0,0.06,0.06,0.118v0.06v0.119c-0.06,0.119,0,0.179-0.119,0.238
	c-0.179,0.713-0.595,1.486-0.892,2.199c-0.357,0.416-0.595,0.833-0.892,1.309c-0.536,0.356-0.952,0.772-1.428,1.07
	c-0.476,0.297-0.951,0.535-1.486,0.654c-0.476,0.178-1.011,0.297-1.546,0.356c-0.535,0.059-1.07,0.059-1.665,0.059l-0.297-0.059
	h-0.237h-0.061c0.595,0.059,1.189,0.059,1.784,0.059c0.119,0,0.238,0,0.356-0.059h0.298l0.356-0.06h0.119
	c0.06-0.06,0.06-0.06,0.178-0.06l0.298-0.06c0.119-0.06,0.238-0.06,0.356-0.119l0.179-0.059c0.06,0,0.06,0,0.179-0.06l0.297-0.06
	c0.357-0.179,0.714-0.357,1.07-0.595c0.416-0.298,0.713-0.654,1.13-0.951c0.237-0.298,0.535-0.714,0.832-1.07
	c0.179-0.298,0.417-0.714,0.476-1.07c0.238-0.416,0.356-0.833,0.476-1.189c0.179-0.179,0.238-0.237,0.238-0.297v-0.298l0.06-0.06
	l-0.06-0.059c-0.06,0-0.06-0.06-0.06-0.06c0.06-0.119,0.06-0.179,0-0.238c-0.119-0.237-0.179-0.356-0.238-0.416c0,0-0.06,0,0-0.06
	l-0.118-0.06c-0.298-0.059-0.536-0.179-0.773-0.237c-0.238-0.06-0.416-0.119-0.713-0.179c-0.654-0.119-1.13-0.179-1.605-0.179
	C165.576,88.627,164.624,88.567,163.495,88.567z M163.436,86.188c0.297-0.772,0.535-1.843,0.714-2.318h0.06
	c0.059-0.179,0.118-0.297,0.059-0.356c0.119-0.238,0.477-0.833,0.595-1.367l0.06-0.061c0.179-0.535,0.297-1.188,0.416-1.486h-0.06
	c-0.772,2.021-1.486,4.281-2.2,6.838c0.06-0.179,0.12-0.357,0.12-0.654C163.257,86.665,163.376,86.427,163.436,86.188z
	 M165.576,80.659c-0.179,0.476-0.357,0.951-0.416,1.368c-0.416,1.188-0.773,2.556-1.309,3.924c0.179-0.238,0.238-0.416,0.357-0.595
	c0-0.238,0.059-0.535,0.178-0.773C164.624,83.573,165.16,82.146,165.576,80.659z M165.278,70.374c0.06,0,0.06-0.119,0.119-0.119
	h0.119C165.397,70.374,165.278,70.374,165.278,70.374z M165.457,80.422c-0.06-0.06-0.06-0.06-0.119-0.06l0.06,0.06H165.457z
	 M165.813,70.374h-0.356c0.06,0,0,0,0,0.06C165.576,70.374,165.576,70.433,165.813,70.374z M179.667,71.979l-0.06-0.059v-0.06
	c0-0.119,0.06-0.179,0.06-0.238l-0.119-0.119v-0.06l-0.119-0.059c-0.118-0.297-0.297-0.416-0.416-0.476
	c-0.178-0.119-0.297-0.178-0.535-0.238c-0.297-0.119-0.653-0.179-1.07-0.238c-0.653-0.179-1.427-0.238-2.141-0.297
	c-1.545-0.119-2.972-0.119-4.34-0.119h2.081c1.07,0.06-0.297,0-0.476,0h-1.724h-1.606c-0.476,0.06-0.95,0.06-1.308,0.06
	c0.357,0.06,1.546,0,2.081-0.06c0.773,0,1.308,0.06,2.021,0.06c0.119,0,0.298-0.06,0.535-0.06c0.832,0.06,1.784,0.06,2.734,0.119
	c0.477,0.06,0.893,0.119,1.487,0.238c0.416,0.06,0.951,0.119,1.427,0.238c0.178,0.06,0.476,0.119,0.654,0.237
	c0.178,0.06,0.237,0.12,0.356,0.179c0.06,0.178,0.178,0.237,0.356,0.416c0.06,0.119,0.06,0.179,0.119,0.238
	c-0.119,0.06-0.06,0.119-0.06,0.179s0,0.119-0.06,0.178l-0.06,0.06c0,0.059,0,0.119,0.06,0.297c-0.06,0.238-0.119,0.476-0.179,0.654
	c-0.297,1.011-0.594,1.962-1.248,2.854c-0.356,0.772-0.772,1.367-1.367,1.902c-0.477,0.595-0.951,1.129-1.665,1.605
	c-0.595,0.417-1.367,0.833-2.021,1.071c-0.298,0.059-0.833,0.178-1.129,0.237c-0.477,0.119-0.893,0.179-1.189,0.179
	c-0.298,0-0.654,0-1.07,0.06c-0.357,0-0.714-0.06-1.011-0.06c-0.416,0-0.773,0-1.13-0.06c-0.119-0.06-0.298-0.06-0.476-0.119
	c-0.179,0-0.298-0.06-0.476-0.06c-0.238-0.06-0.477-0.119-0.714-0.178c0.06,0.059,0.179,0.059,0.237,0.059
	c0.119,0,0.298,0.06,0.357,0.06c0.595,0.179,1.189,0.298,1.843,0.298h0.476c0.119,0.06,0.298,0.06,0.416,0.06h1.012
	c0.535-0.06,1.13-0.06,1.783-0.238h0.179l0.237-0.06l0.179-0.06l0.178-0.06h0.179c0.298-0.059,0.535-0.178,0.773-0.297
	c0.297-0.238,0.595-0.356,0.892-0.535c0.238-0.119,0.535-0.297,0.773-0.417c0.297-0.178,0.475-0.535,0.713-0.713
	c0.178-0.178,0.595-0.416,0.595-0.654c0.832-0.951,1.605-1.962,2.081-3.032c0.178-0.476,0.416-1.011,0.535-1.546
	c0.118-0.297,0.178-0.535,0.178-0.773c0.06-0.059,0.06-0.119,0.06-0.178c-0.06-0.06-0.06-0.238-0.06-0.297l0.119-0.06
	L179.667,71.979z M166.646,70.195h0.297"/>
<path fill="#15A1D9" d="M182.223,95.643c-0.713,1.605-1.604,3.15-2.497,4.519c-0.179,0.178,0.06-0.119,0.119-0.179
	c-0.06,0.06-0.179,0.298-0.298,0.476c-0.118,0.119-0.237,0.298-0.356,0.416c0.356-0.416,0.654-0.892,0.951-1.308
	c-0.237,0.356-0.476,0.772-0.832,1.248c-0.297,0.476-0.773,1.012-1.308,1.605c0.178-0.118,0.416-0.416,0.653-0.713
	c0.357-0.298,0.535-0.654,0.773-0.833c0.118-0.06,0,0.06-0.06,0.119c-0.06,0.179-0.179,0.416-0.238,0.416
	c-0.297,0.477-0.654,0.833-0.832,1.13c-0.356,0.356-0.595,0.714-0.951,0.951c-0.476,0.476-1.13,1.011-1.784,1.428
	c-0.178,0.118-0.416,0.178-0.535,0.237c-0.118,0.06-0.237,0.119-0.297,0.179l-0.179,0.059v0.061h-0.118
	c-0.179,0.059-0.357,0.118-0.535,0.178h-0.06h-0.06h-0.06c-0.06,0-0.179,0.06-0.238,0.06h-0.237c-0.297,0.06-0.654,0-0.892-0.179
	c-0.119,0-0.179,0-0.298-0.059c-0.06,0-0.06-0.061-0.118-0.061l-0.061-0.059l-0.118-0.119c-0.06-0.179-0.238-0.297-0.416-0.476
	c-0.119-0.357-0.357-0.773-0.416-1.189c-0.06-0.416-0.119-0.773-0.119-1.248c-0.119-0.773,0-1.546,0.06-2.26
	c0.06-0.772,0.178-1.486,0.356-2.26c0.179-0.713,0.297-1.427,0.416-2.14c0.119-0.298,0.179-0.654,0.298-1.07
	c0.059-0.298,0.178-0.595,0.297-0.952c0.297-1.367,0.654-2.734,1.011-4.102c0.06-0.119,0.06-0.297,0.06-0.476
	c0.06-0.179,0.178-0.357,0.178-0.476c0.119-0.416,0.238-0.773,0.357-1.07c0.237-0.714,0.476-1.368,0.832-2.081
	c0.179-0.356,0.297-0.654,0.535-0.951c0.179-0.357,0.416-0.654,0.714-0.951c0.297-0.238,0.594-0.476,0.892-0.654
	c0.416-0.119,0.714-0.179,1.07-0.179c0.119,0,0.297,0,0.416,0.06c0.119,0,0.178,0.06,0.237,0.06v0.06h0.061h0.059
	c0,0.06,0,0.06,0.06,0.06c0.179,0.059,0.356,0.178,0.476,0.297c0.179,0.119,0.238,0.298,0.416,0.416
	c0.179,0.357,0.298,0.773,0.357,1.13c0.118,0.356,0.118,0.773,0.178,1.07c0,0.773,0,1.427-0.06,2.141
	c-0.118,0.654-0.178,1.308-0.297,1.962c-0.179,0.772-0.356,1.546-0.476,2.318c-0.119,0.417-0.238,0.833-0.297,1.189
	c-0.06,0.178-0.179,0.416-0.179,0.654l-0.119,0.237l-0.06,0.179v0.06v0.06v-0.06v0.06c-0.416,1.546-0.832,3.092-1.248,4.578
	c0,0.118,0,0.297-0.06,0.356h0.06c0.06-0.119,0.237-0.297,0.356-0.477c0.595-0.534,1.07-1.188,1.486-1.664
	c0.654-0.772,1.13-1.546,1.546-2.318c0.119-0.179,0.237-0.356,0.298-0.535c0.059-0.06,0.119-0.179,0.237-0.357
	c0.119-0.178-0.118,0.119-0.06,0.119c0.238-0.595,0.595-1.188,0.654-1.188c-0.06,0.178-0.119,0.178-0.237,0.475
	c-0.061,0.119,0.059,0,0.118-0.059c0.06-0.179,0.119-0.356,0.179-0.356c-0.06,0.237-0.179,0.415-0.357,0.772
	c0.179-0.357,0.238-0.476,0.357-0.654c0.06-0.178,0.178-0.297,0.297-0.653c0,0-0.06,0.059-0.06,0.178
	c0-0.06,0.119-0.178,0.238-0.476c-0.119,0.298,0.059-0.059,0.178-0.297c0,0.059-0.06,0.238-0.119,0.356l0.179-0.535
	c0.119-0.178,0,0.356-0.119,0.595c0.119-0.178,0.179-0.476,0.179-0.595c0.119-0.06,0.119-0.06,0.06,0
	c0.356-0.772,0.535-1.249,0.535-1.249h0.476c-3.627,9.87-7.313,12.783-9.334,13.676c0.178-0.06,0.416-0.179,0.772-0.357
	c0.297-0.178,0.595-0.297,0.773-0.535c0.356-0.178,0.534-0.416,0.713-0.654c0.119,0,0.298-0.118,0.416-0.297
	c0.179-0.178,0.417-0.356,0.654-0.594c0.356-0.417,0.653-0.893,0.832-1.012c-0.059,0.119-0.237,0.357-0.535,0.773
	c0.119-0.119,0.298-0.297,0.416-0.476c0.119-0.238,0.298-0.357,0.357-0.535c0.119-0.119,0.297-0.356,0.535-0.654
	c0.297-0.356,0.416-0.654,0.535-0.893c0.654-0.95,1.188-1.961,1.725-2.972c0,0.06-0.12,0.237-0.179,0.476
	c-0.119,0.178-0.238,0.298-0.238,0.356c0.179-0.238,0.356-0.595,0.595-1.011c0.119-0.297,0.297-0.595,0.356-0.714
	c-0.06,0.238-0.237,0.477-0.356,0.773c0.119-0.237,0.356-0.714,0.595-1.189c0.178-0.476,0.416-1.01,0.595-1.308
	c-0.417,0.892-0.833,1.962-1.309,2.973c-0.595,1.011-1.188,2.141-1.843,3.151c-0.714,1.07-1.546,2.081-2.318,2.973
	c-0.893,0.832-1.784,1.546-2.735,2.021c0.118,0,0.595-0.238,1.07-0.595c0.297-0.178,0.535-0.356,0.772-0.654
	c0.357-0.178,0.535-0.476,0.773-0.653c0.297-0.238,0.713-0.654,1.248-1.309c0.476-0.595,1.011-1.367,1.486-2.199
	c0.773-1.13,1.487-2.498,2.141-3.806C182.937,94.037,182.996,94.097,182.223,95.643 M176.515,79.113c0-0.238,0.06-0.535,0.06-0.772
	c0-0.178,0.06-0.297,0.06-0.417v-0.178v-0.119v-0.059h0.06v-0.119c0,0,0.06-0.06,0.06-0.119c0.06-0.237,0.06-0.476,0.179-0.654
	c0.059-0.297,0.237-0.476,0.297-0.713c0.238-0.476,0.416-0.892,0.773-1.249c0.297-0.356,0.595-0.773,1.011-1.01
	c0.356-0.238,0.713-0.416,1.129-0.476h0.06c0.119-0.06,0.237-0.06,0.417-0.06h0.059c0.238,0,0.536,0.06,0.773,0.178
	c0.297,0.119,0.595,0.297,0.832,0.594c0.237,0.238,0.416,0.536,0.535,0.892c0,0.238,0.119,0.476,0.179,0.654
	c0,0.06,0,0.119-0.06,0.179l0.06,0.059v0.06v0.297c0,0.476,0,1.011-0.119,1.487c-0.119,0.535-0.298,1.129-0.476,1.605
	c-0.179,0.416-0.416,0.773-0.654,1.07c-0.237,0.298-0.476,0.535-0.653,0.654c-0.298,0.178-0.535,0.297-0.714,0.356l-0.238,0.119
	c-0.06,0,0.06,0,0-0.06c-0.118,0.119-0.297,0.179-0.297,0.06l0.119-0.06c0-0.06-0.119,0.06-0.119,0s0.06-0.06,0.119-0.06h-0.298
	h0.06h-0.119h-0.118h0.059c0-0.06-0.118,0-0.118,0c-0.06,0,0.06-0.119,0.118-0.179c-0.059,0-0.118,0.06-0.118,0.06h-0.06
	c-0.06,0-0.119,0.06-0.238,0.119c-2.021,0.535-1.962-1.665-1.724-3.21c0,0-0.119,0.119-0.119,0.297c0,0.178-0.06,0.475-0.06,0.594
	c0,0.06,0,0.297-0.06,0.476c0,0.178,0.06,0.357,0,0.475c0-0.059-0.06-0.178-0.06-0.356v0.356c0,0.119,0.06,0.238,0.06,0.357
	c0.06,0.06,0.119,0.179,0.06,0.237c0.06,0.179,0.179,0.357,0.238,0.477c0.06,0.178,0.119,0.297,0.237,0.356c0,0-0.06,0-0.118-0.06
	c0,0-0.06-0.06-0.06,0c0.06,0,0.118,0.06,0.237,0.179c0.06,0.06,0.179,0.118,0.179,0.118c-0.06,0-0.119-0.059-0.238-0.118
	c0.119,0.118,0.238,0.178,0.298,0.237c0.118,0.06,0.237,0.06,0.356,0.06h-0.356c-0.179-0.06-0.238-0.179-0.416-0.297
	c-0.119-0.119-0.238-0.179-0.298-0.417c-0.119-0.178-0.237-0.297-0.298-0.535c-0.059-0.356-0.059-0.772-0.059-1.189
	c0-0.416,0.059-0.773,0.059-1.189c-0.059,0.06-0.059,0.238-0.059,0.416c-0.06,0.238,0,0.476,0,0.714c-0.06,0.119-0.06,0.297,0,0.595
	c0,0.237,0.059,0.535,0.059,0.892c0.119,0.179,0.179,0.416,0.357,0.595s0.297,0.356,0.476,0.416c0.237,0.06,0.356,0.119,0.535,0.119
	h0.476c0.119,0,0.297-0.06,0.356-0.06c-0.178,0.06-0.416,0.119-0.594,0.179c-0.238,0-0.536-0.06-0.773-0.179
	c-0.119-0.06-0.237-0.06-0.297-0.179c-0.119-0.118-0.238-0.237-0.298-0.356c-0.178-0.297-0.238-0.595-0.297-0.892
	c0-0.06-0.06,0.118-0.06,0.118c0.06-0.059,0-0.118,0-0.178s-0.06-0.119-0.06-0.179c0.06,0.179,0.06,0.356,0.119,0.535
	c-0.06-0.118-0.06-0.297-0.119-0.476s-0.06-0.416-0.119-0.713v0.357v0.476c-0.06,0-0.119-0.179-0.179-0.238
	c0-0.179,0.06-0.297,0-0.476C176.515,79.411,176.456,79.292,176.515,79.113z M177.704,100.102c0.298-0.237,0.595-0.535,0.832-0.892
	C178.358,99.447,178.002,99.804,177.704,100.102z M178.894,83.989c0.06,0.118,0.119,0.237,0.178,0.356
	c0.06,0.119,0.119,0.178,0.179,0.237v0.119c0-0.059-0.06-0.237-0.237-0.476C178.953,84.107,178.953,84.049,178.894,83.989
	c-0.119-0.06-0.238-0.119-0.297-0.179C178.536,83.751,178.715,83.87,178.894,83.989z M178.953,98.734
	c0.237-0.238,0.476-0.595,0.772-0.952c-0.119,0.119-0.237,0.298-0.297,0.417l-0.06,0.06c0.237-0.238,0.476-0.535,0.595-0.893
	c0.118-0.118,0.118-0.118,0.178-0.178c0.119-0.297,0.238-0.477,0.417-0.714c-0.179,0.237-0.298,0.417-0.417,0.654
	c0-0.06,0-0.06-0.06,0c-0.059,0.119-0.178,0.297-0.297,0.535c0,0.06-0.06,0.06-0.06,0.118
	C179.429,98.14,179.25,98.437,178.953,98.734z M179.726,97.782c0-0.059,0.06-0.059,0.06-0.118c0.119-0.179,0.238-0.416,0.356-0.535
	v0.06c-0.178,0.118-0.178,0.237-0.297,0.416C179.785,97.664,179.785,97.724,179.726,97.782z M180.438,80.6
	c0.18-0.119,0.298-0.178,0.417-0.297c0.06,0,0.178-0.06,0.238-0.179c-0.119,0.119-0.238,0.179-0.298,0.238
	C180.677,80.422,180.499,80.541,180.438,80.6z M181.152,79.946c0.061-0.061,0.238-0.119,0.298-0.298
	c0.118-0.119,0.178-0.238,0.297-0.416C181.568,79.529,181.391,79.827,181.152,79.946z M181.866,74.654
	c0.06,0.059,0.119,0.178,0.179,0.178c0,0-0.06-0.059-0.119-0.059c0-0.06-0.06-0.119-0.119-0.178
	C181.807,74.595,181.807,74.654,181.866,74.654z"/>
<path fill="#15A1D9" d="M190.844,96.178c0,0.416,0.06,0.832-0.06,1.248c-0.06,0.119,0,0.06,0.06-0.06v-0.178
	c0,0.118,0,0.297-0.06,0.594c0.06,0.179,0.06,0.417,0.06,0.595c0-0.356-0.06-0.595,0-0.951c0.119-0.356,0.06-0.654,0-0.892
	c0.119,0.476,0,1.07,0,1.665c-0.06,0.713-0.238,1.486-0.416,2.497c0.06-0.238,0.118-0.714,0.237-1.13
	c0.179-0.535,0.238-1.07,0.298-1.427c0-0.119,0,0,0.06,0.297c0,0.119-0.06,0.357-0.06,0.476c-0.119,0.654-0.298,1.13-0.298,1.665
	c-0.06,0.237-0.06,0.476-0.119,0.714l-0.118,0.237h-0.06v0.06v0.119c-0.06,0.119-0.119,0.237-0.119,0.297
	c-0.237,0.416-0.356,0.833-0.535,1.248c-0.297,0.477-0.535,0.952-0.713,1.368c-0.298,0.476-0.773,0.892-1.13,1.368
	c-0.119,0.118-0.298,0.237-0.357,0.297c0,0.06-0.059,0.06-0.059,0.119l-0.119,0.059l-0.06,0.06l-0.119,0.06
	c-0.119,0.179-0.535,0.416-0.772,0.535c-0.238,0.06-0.476,0.119-0.714,0.179c-0.178,0.06-0.595,0.119-0.832,0.119
	c-0.535,0-1.011-0.179-1.427-0.357l-0.061-0.06c-0.237-0.237-0.594-0.476-0.95-0.713c-0.238-0.297-0.535-0.654-0.654-1.011
	c-0.179-0.416-0.476-0.893-0.476-1.309c-0.06-0.237,0-0.534,0.06-0.772c0-0.179,0-0.416,0.059-0.714
	c0.06-0.476,0.119-0.832,0.417-1.248c0.178-0.417,0.297-0.714,0.534-1.07c0.298-0.476,0.714-0.893,1.071-1.249l-0.893-2.557
	c0-0.178-0.059-0.237-0.179-0.476v-0.06c0-0.892-0.415-1.783-0.475-2.734c0.06-0.477,0-0.951,0.06-1.486
	c0-0.238,0-0.476,0.059-0.654c0.179-0.179,0.179-0.356,0.238-0.476v-0.06v-0.06c0.06,0,0.06,0,0,0c0.06,0,0.06,0,0.06-0.06
	s0.059-0.118,0-0.179c0.119-0.297,0.179-0.475,0.297-0.772c0.06-0.059,0.06-0.119,0.06-0.119c0.06-0.06,0.06-0.118,0-0.178
	l0.06-0.06l0.06-0.06l0.119-0.179c0.297-0.416,0.535-0.713,0.892-1.13c0.416-0.713,1.188-1.308,1.902-1.843
	c0.595-0.653,1.367-1.13,2.141-1.546c0.356-0.237,0.832-0.416,1.189-0.595h0.06l0.059-0.059l0.119-0.06
	c0.119-0.061,0.238-0.061,0.297-0.061c0.179-0.118,0.416-0.178,0.536-0.237c0.475-0.179,0.832-0.356,1.248-0.356
	c0.356-0.119,0.832-0.238,1.249-0.298h0.595c0.297,0,0.534,0,0.772,0.06c0.237,0,0.416,0.119,0.654,0.238
	c0.118,0.06,0.237,0.178,0.297,0.356c0.179,0.179,0.297,0.237,0.416,0.416c0,0.179-0.06,0.357,0,0.476
	c0,0.238-0.06,0.416-0.178,0.477c0,0.059,0,0.059,0.059,0.118l-0.059,0.06v0.06v0.06V85c0,0.119-0.179,0.297-0.238,0.416
	c-0.119,0.237-0.179,0.476-0.297,0.713c-0.119,0.179-0.357,0.477-0.654,0.714c-0.238,0.119-0.476,0.297-0.893,0.356
	c-0.059,0.06-0.118,0.06-0.178,0.06h-0.119c0,0.06,0,0.06-0.06,0.06h-0.06c-0.119-0.06-0.297-0.06-0.535-0.119
	c-0.118-0.06-0.297-0.178-0.534-0.297c-0.119-0.119-0.119-0.297-0.179-0.476c0,0.06-0.06,0.119-0.06,0.119
	c-0.356,0.297-0.595,0.476-0.773,0.713c-0.534,0.595-0.832,1.13-1.188,1.784v0.772c-0.06,0.297,0.06,0.535,0.119,0.773v0.118v-0.118
	c-0.119,0.297-0.06,0.416,0.059,0.595c0,0.059,0.06,0.118,0.06,0.118v0.179v0.297c0.179,0.357,0.356,0.714,0.417,1.13
	c0.178,0.595,0.297,1.189,0.476,1.665c0.118-0.119,0.297-0.179,0.416-0.238c1.13-0.595,1.902-1.07,2.973-1.546
	c0.476-0.237,0.595-0.297,0.951-0.476c0.298-0.119-0.06,0.06,0,0.06c0.535-0.297,1.189-0.595,1.309-0.713
	c-0.298,0.178-0.298,0.178-0.595,0.356c-0.179,0.119,0.476-0.238,0.534-0.238c-0.237,0.119-0.415,0.238-0.713,0.357
	c0.535-0.298,0.595-0.298,1.367-0.654c0.06,0-0.06,0-0.237,0.06c0.06-0.06,0.297-0.119,0.594-0.238c-0.297,0.179,0.06,0,0.238-0.118
	c0,0-0.119,0.118-0.297,0.178c0,0,0.059-0.06,0.118-0.06c0-0.06,0.06-0.06,0.179-0.118c0,0,0.06-0.06,0.119-0.06l0.06-0.06
	c0.297-0.119-0.238,0.178-0.476,0.297c0.178-0.119,0.476-0.237,0.595-0.297h0.059c0.893-0.357,1.368-0.654,1.368-0.654v0.06
	l-0.238,0.535c0,0-6.124,3.032-8.383,4.994c0.118,0.951-0.06,2.854-0.893,5.232c-0.594,1.367-1.308,2.794-2.14,3.805
	c0-0.06,0.06-0.118,0.237-0.178c0.119-0.179,0.238-0.477,0.476-0.714c0.119-0.356,0.477-0.713,0.714-1.07
	c0.119-0.356,0.297-0.772,0.356-1.13c0.06-0.059,0.179-0.297,0.238-0.595c0.238-0.237,0.356-0.594,0.416-0.892
	c0.118-0.356,0.179-0.713,0.238-0.951c0.237-0.356,0.237-0.535,0.237-0.713c0,0.118,0.06,0.237-0.119,0.416
	c0,0.237,0,0.416-0.178,0.772c0.178-0.237,0.178-0.476,0.356-0.832c-0.06-0.238,0.06-0.476,0.06-0.654
	c0.06-0.119,0-0.654,0.118-1.011c0.119-0.476,0-0.892,0-1.13c0.06-0.118,0.06-0.178,0.06-0.237c0.357-0.416,0.714-0.714,1.189-1.011
	c0.595-0.298,1.011-0.654,1.427-0.893c-0.059,0.061-0.237,0.179-0.416,0.238c-0.119,0.119-0.298,0.238-0.298,0.298
	c0.238-0.179,0.596-0.357,1.012-0.595c0.297-0.298,0.653-0.417,0.772-0.536c-0.297,0.179-0.535,0.357-0.772,0.536
	c0.237-0.179,0.713-0.476,1.13-0.773c0.534-0.237,1.129-0.595,1.426-0.713c-0.892,0.476-1.724,0.95-2.615,1.605
	c-0.535,0.237-0.952,0.594-1.486,0.95c-0.477,0.238-0.833,0.477-1.13,0.893v-0.179c0,0,0,0.06-0.06,0.06v-0.06
	c0,0,0,0.06-0.06,0.179v-0.179c-0.06,0.179-0.06,0.238-0.119,0.298c0,0,0.06,0,0.06-0.06c0,0.06-0.06,0.118-0.06,0.118l0.119-0.059
	c-0.119,0.059-0.119,0.059-0.119,0.118c0.06-0.06,0.06-0.06,0.179-0.118c0.06,0.653-0.119,1.427-0.06,2.14
	c-0.06,0.714-0.356,1.547-0.653,2.319c0,0.178,0,0.356-0.12,0.595c-0.178,0.118-0.237,0.356-0.296,0.595
	c-0.12,0.297-0.298,0.713-0.417,1.069c-0.356,0.714-0.772,1.368-1.249,2.081c0.06-0.118,0.238-0.237,0.417-0.535
	c0.179-0.237,0.356-0.535,0.535-0.832c0.237-0.417,0.416-0.773,0.535-1.189c0.118-0.416,0.297-0.772,0.535-1.188
	c0.06-0.357,0.356-1.13,0.534-2.022c0.179-0.832,0.238-1.962,0.298-3.031V96.178z M183.53,104.145c0-0.119,0-0.179-0.06-0.238
	v-0.178C183.471,103.847,183.471,104.025,183.53,104.145z M183.53,103.669v-0.237c0.06-0.061,0.06-0.18,0.06-0.238
	c0,0.059,0,0.178-0.06,0.238V103.669z M183.946,104.561c0-0.356,0-0.772,0.119-1.129c0.06-0.061-0.059,0-0.059,0
	s0.118-0.061,0.118-0.119c-0.06,0.059-0.118,0.119-0.118,0.237c0-0.118,0.059-0.179,0.059-0.237v-0.238c0,0-0.059,0.06-0.059,0.119
	c0,0-0.061,0.059-0.061,0.119c-0.06,0-0.06-0.061-0.118-0.061v-0.059c0-0.06,0.059-0.119,0.059-0.179s0.06-0.178,0.06-0.237
	c0.061-0.119,0.061-0.298,0.119-0.298c0.06-0.119,0.119-0.178,0.119-0.297v-0.119c0-0.06,0-0.119,0.06-0.119
	c0.119-0.237,0.237-0.535,0.535-0.713v-0.119c0-0.238,0-0.416-0.06-0.654c-0.238,0.238-0.356,0.416-0.535,0.654l-0.06,0.06v-0.06
	c-0.06,0.119-0.179,0.179-0.297,0.237c0,0.06-0.06,0.06-0.06,0.179c0,0.179,0,0.298-0.06,0.416v0.119c0,0.06,0.06,0.06,0.06,0.119
	v0.119c0,0.059-0.06,0.118-0.06,0.178v0.119c0,0.119,0.06,0.238,0.06,0.297v0.119v0.06c0,0,0,0.06,0.06,0.119v0.059
	c0,0.061,0,0.119-0.06,0.18v0.415v0.357v0.119c0,0.059,0,0,0,0v0.059C183.828,104.442,183.946,104.501,183.946,104.561z
	 M184.66,102.599c-0.06,0-0.06,0.238-0.06,0.416v0.119c0,0.118-0.06,0.179-0.06,0.237c-0.06-0.059-0.06-0.119-0.06-0.178v0.178
	c-0.118,0.061-0.118,0.179-0.118,0.298l-0.119,0.06v0.118c-0.06,0.06-0.06,0.119-0.06,0.119c0,0.06-0.06,0.06-0.06,0.119l0.06-0.119
	c-0.06,0.06-0.119,0.238-0.119,0.238v-0.119c0,0.06,0,0.119-0.059,0.119v0.178c0-0.178,0.059-0.535,0.118-0.832
	c0.06-0.118,0.119-0.179,0.119-0.298v-0.178v-0.237v-0.238c-0.06,0-0.06,0.06-0.06,0.179c0,0.06,0.06,0.178,0.06,0.297
	c-0.119,0-0.06,0.238-0.179,0.595c0,0-0.059,0.119-0.059,0.178v0.119v0.06c0,0.06-0.061,0.06-0.061,0.119v0.237v0.119v0.06
	c0.061,0.06,0.119,0.06,0.119,0.119C184.423,104.025,184.601,103.252,184.66,102.599z M188.822,84.405
	c0.119-0.06,0.238-0.179,0.356-0.298h0.06h0.06c0.06-0.06,0.06-0.06,0.119-0.06l0.06-0.059h0.118h-0.118
	c-0.06,0.059-0.119,0.059-0.179,0.059c0,0.06-0.06,0.06-0.06,0.06h-0.06c0,0-0.06,0.119-0.118,0.119
	c-0.179,0.119-0.417,0.297-0.773,0.357C188.228,84.584,188.585,84.523,188.822,84.405z M189.238,90.826l-0.06-0.06v-0.06v-0.178
	v0.178v0.06v-0.06v0.06L189.238,90.826z M189.179,90.707v0.06 M189.238,90.826c-0.06,0.179,0,0.476,0.06,0.654
	c0.119,0.356,0.237,0.654,0.297,0.892c0.119,0.535,0.238,1.07,0.298,1.605c0-0.357-0.237-0.951-0.298-1.546
	c-0.06-0.297-0.178-0.595-0.297-0.951C189.179,91.242,189.179,91.005,189.238,90.826z M190.605,95.939v0.179l-0.06,0.06
	C190.546,96.118,190.546,95.999,190.605,95.939z M190.665,94.751c0.595-0.357,1.486-0.952,1.962-1.189
	c-0.594,0.297-1.069,0.595-1.546,0.832C190.903,94.513,190.784,94.632,190.665,94.751z M190.665,96.178c0.06,0,0.06,0,0.06-0.06
	l0.06,0.06H190.665z M190.725,96.237c0,0,0-0.06,0.06-0.06L190.725,96.237z M190.784,95.999c0,0.119,0.06,0.119,0.06,0.119
	l-0.06,0.06V95.999z M190.784,96.178h0.06v0.059h-0.06V96.178z M199.108,90.47c-0.06,0.237-0.179,0.416-0.179,0.535v0.06h-0.06
	c-1.308,0.832-2.676,1.605-4.162,2.438c-0.356,0.237-0.713,0.476-1.011,0.713c-0.416,0.179-0.713,0.417-1.011,0.654
	c-0.476,0.238-0.832,0.476-1.189,0.714c-0.178,0.179-0.416,0.356-0.653,0.595c0.416-0.476,0.951-0.833,1.664-1.13
	c0.535-0.535,1.189-0.892,1.844-1.367c1.368-0.773,2.557-1.487,3.567-2.081c0.356-0.179,0.654-0.357,0.951-0.535l0.06-0.06
	C199.049,90.826,199.049,90.589,199.108,90.47z M190.844,96.118v0.06"/>
<path fill="#15A1D9" d="M215.935,90.47v0.119c-0.535,1.545-1.07,3.031-1.725,4.637c-0.654,1.546-1.367,3.151-2.2,4.578
	c-0.416,0.773-0.951,1.487-1.367,2.141c-0.654,0.654-1.13,1.309-1.725,1.903c-0.594,0.595-1.188,1.011-1.962,1.427
	c-0.297,0.178-0.713,0.356-1.011,0.476c-0.178,0.06-0.356,0.118-0.535,0.118c-0.118,0.06-0.237,0.06-0.297,0.06h-0.298h-0.059h-0.06
	h0.06c-0.238-0.06-0.535-0.118-0.833-0.297c-0.178-0.179-0.356-0.416-0.416-0.654c-0.178-0.237-0.356-0.476-0.476-0.713
	c-0.119-0.298-0.119-0.535-0.119-0.832c-0.119-0.238-0.06-0.119,0,0.118v0.535c0-0.179-0.06-0.356-0.06-0.595
	c-0.06-0.178-0.118-0.416-0.178-0.714c-0.06-0.475-0.06-0.95-0.119-1.188c0.06,0.535,0.06,1.188,0.297,1.844
	c0,0.356,0.06,0.653,0.179,0.95c0.119,0.238,0.298,0.477,0.476,0.654c-0.356-0.416-0.595-0.832-0.595-1.367
	c-0.237-0.535-0.297-1.189-0.356-1.902c0.06-0.595,0.06-1.368,0.06-2.2c0.06-0.832,0.237-1.665,0.356-2.676
	c-0.119,0.535-0.237,1.427-0.297,2.379c-0.119,0.476-0.119,1.01-0.119,1.486c-0.06,0.476-0.06,0.892,0,1.248
	c0,0.238-0.06-0.06-0.119-0.416c-0.06-0.297,0-0.832-0.06-1.011c-0.06-0.595,0.06-1.189,0.06-1.783
	c0.06-0.477,0.179-1.012,0.238-1.546c0.06-0.536,0.118-1.07,0.237-1.605c0.06-0.417,0.238-0.951,0.297-1.428v-0.059v-0.06v0.06
	v-0.06c0.06-0.06,0.06-0.119,0.06-0.119c0-0.119,0.061-0.238,0.061-0.298c0.059-0.237,0.118-0.416,0.178-0.594
	c0-0.416,0.119-0.773,0.238-1.249c0.059-0.832,0.237-1.724,0.356-2.556c0-0.477-0.06-0.893,0-1.309c0-0.179-0.06-0.357-0.119-0.535
	c0-0.119-0.06-0.238-0.06-0.238v-0.06h-0.06l0.06,0.06h-0.119c0,0-0.119,0.06-0.297,0.179c-0.06,0.06-0.178,0.119-0.238,0.237
	v-0.059c0-0.06,0.061-0.06,0.061-0.119c-0.061,0.119-0.061,0.178-0.179,0.237c0.059,0,0.118-0.06,0.118-0.06
	c-0.118,0.238-0.416,0.536-0.534,0.833c-0.06,0.119-0.119,0.297-0.179,0.476c0,0.06-0.06,0.119-0.06,0.179l-0.595,1.427
	c-0.118,0.178-0.118,0.416-0.237,0.595c-0.119,0.653-0.357,1.308-0.476,1.902c-0.238,1.308-0.477,2.616-0.654,3.983
	c-0.119,0.654-0.179,1.367-0.298,2.021c-0.119,0.714-0.178,1.427-0.297,2.2c-0.119,0.297-0.179,0.654-0.297,1.07
	c-0.06,0.356-0.119,0.772-0.238,1.188c-0.06,0.179-0.237,0.416-0.356,0.654c-0.06,0.179-0.179,0.356-0.297,0.595
	c-0.179,0.237-0.417,0.476-0.654,0.595c-0.238,0.178-0.476,0.297-0.714,0.297h0.06h0.06l-0.179,0.06l0.06-0.06l-0.06,0.06h-0.119
	c-0.118,0-0.178,0.06-0.237,0.06h-0.476c-0.297,0-0.535-0.119-0.892-0.238c-0.238-0.178-0.416-0.356-0.595-0.594
	c-0.238-0.238-0.477-0.476-0.595-0.773c-0.298-0.535-0.476-1.188-0.654-1.783c-0.119-0.654-0.178-1.189-0.178-1.784
	c-0.06-1.248-0.06-2.378,0.059-3.567c0.119-1.248,0.238-2.318,0.476-3.508c0.119-0.595,0.179-1.07,0.298-1.665l0.06-0.416v-0.416
	c0.119-0.298,0.237-0.595,0.237-0.892c0.298-1.07,0.595-2.2,0.833-3.33c0.534-2.2,1.367-4.34,2.259-6.361
	c0.952-2.022,1.962-3.924,3.151-5.708c0.595-0.892,1.189-1.783,1.902-2.615c0.595-0.773,1.309-1.546,1.903-2.26l0.178-0.179
	l0.238-0.119c0.06-0.06,0.179-0.178,0.237-0.238c0.06-0.119,0.119-0.179,0.238-0.297l0.06-0.06h0.06l0.178-0.119
	c0.356-0.298,0.773-0.595,1.309-0.832c0.356-0.238,0.832-0.417,1.308-0.476c0.238-0.06,0.476-0.06,0.713,0
	c0.298,0.06,0.536,0.179,0.773,0.297c0.179,0.119,0.416,0.297,0.535,0.535v0.06l0.06,0.059l0.06,0.059v0.06h0.06l0.059,0.119
	c0.061,0.119,0.12,0.237,0.238,0.297c0.238,0.476,0.298,1.011,0.476,1.546c0.06,0.535,0.06,1.13,0.06,1.605
	c-0.119,0.594-0.119,1.13-0.237,1.665c-0.298,1.071-0.714,2.2-1.249,3.211c-0.476,0.951-1.13,1.902-1.725,2.794
	c-0.356,0.416-0.653,0.832-1.011,1.188l-0.118,0.179v0.06l-0.06,0.06l-0.06,0.06l-0.357,0.297c-0.178,0.179-0.237,0.357-0.415,0.595
	c-0.238,0.179-0.417,0.416-0.654,0.654c0.356-0.119,0.832-0.238,1.188-0.238c0.238-0.06,0.535,0,0.773,0.06
	c0.237,0.06,0.535,0.179,0.773,0.356c0.297,0.179,0.475,0.417,0.653,0.654c0.178,0.298,0.178,0.595,0.298,0.893
	c0.118,0.356,0.059,0.772,0.118,1.129s0.06,0.714-0.06,1.07c0.06,0.714-0.118,1.427-0.179,2.141
	c-0.297,1.367-0.653,2.676-1.01,3.924c-0.06,0.298-0.179,0.595-0.298,0.951c-0.119,0.298-0.119,0.595-0.237,0.893
	c-0.179,0.594-0.298,1.069-0.476,1.664c-0.298,1.07-0.416,2.141-0.416,2.973c-0.061,0.297-0.119,0.654-0.119,0.952
	c0.059,0.237,0.119,0.534,0.178,0.772h0.06h-0.06c0.179,0.297,0.417,0.416,0.654,0.535c0.238,0.119,0.595,0.119,0.832,0
	c0.298-0.119,0.535-0.238,0.833-0.416c0.237-0.238,0.476-0.476,0.714-0.773c0.237-0.238,0.297-0.416,0.475-0.594
	c0.119-0.119,0.238-0.298,0.357-0.417c0.119-0.237,0.297-0.416,0.535-0.772c0.237-0.357-0.179,0.237-0.119,0.119
	c0.772-1.07,1.486-2.438,1.605-2.616c-0.119,0.237-0.179,0.416-0.297,0.534c-0.12,0.179-0.179,0.357-0.357,0.654
	c-0.119,0.179,0-0.06,0.179-0.356c0.179-0.298,0.416-0.654,0.416-0.654c-0.237,0.416-0.476,0.833-0.892,1.546
	c0.297-0.595,0.534-0.951,0.772-1.308c0.179-0.357,0.416-0.773,0.714-1.368c0.118-0.059-0.06,0.119-0.179,0.357
	c0.119-0.179,0.356-0.595,0.535-1.07c-0.238,0.595,0.119-0.238,0.416-0.713c0,0-0.297,0.475-0.356,0.713c0,0,0-0.06,0.06-0.179
	s0.118-0.237,0.179-0.356c0.178-0.298,0.237-0.535,0.237-0.535c0.119-0.297,0.06-0.179,0,0.119
	c-0.179,0.297-0.356,0.713-0.476,0.951c0.119-0.356,0.476-1.011,0.595-1.249c0-0.118,0.06-0.118,0-0.059
	c0.713-1.546,1.248-2.676,1.248-2.676h0.298c-5.055,14.805-10.523,14.923-11.06,14.923c-2.675-0.534-1.605-7.967-0.713-11.118
	c0.476-1.962,1.249-5.886,0.832-7.61c-0.06,0.119,0,0.298,0.06,0.535c0,0.476-0.06,1.13-0.06,1.902
	c-0.06,0.714-0.178,1.546-0.297,2.379c-0.119,0.832-0.238,1.605-0.476,2.318c0,0.06-0.06,0.119-0.06,0.238v0.178
	c0,0-0.06,0-0.06,0.06v0.06c-0.06,0.238-0.179,0.535-0.297,0.832c-0.061,0.536-0.179,1.189-0.298,1.903
	c-0.118,0.713-0.238,1.427-0.297,1.962c-0.06,0.654-0.119,1.129-0.119,1.427c0-0.178-0.06-0.476,0-0.892
	c0.06-0.356,0.06-0.832,0.119-1.486c0,0.416-0.119,1.011-0.119,1.605c-0.06,0.534-0.06,1.069-0.06,1.427
	c-0.06,0.297,0,1.189,0.119,2.081c0.118,0.416,0.178,0.832,0.356,1.189c0.179,0.297,0.416,0.534,0.535,0.713
	c0,0.119,0.179,0.238,0.356,0.297c0.179,0.119,0.238,0.179,0.417,0.179h0.059c0.298,0,0.477,0,0.714-0.06
	c0.179-0.06,0.416-0.119,0.654-0.237c0.476-0.179,0.951-0.416,1.308-0.654c0.773-0.476,1.605-1.189,2.2-1.962
	c-0.06,0.119-0.356,0.476-0.654,0.772c-0.179,0.179-0.297,0.298-0.476,0.416c-0.118,0.119-0.179,0.179-0.179,0.179
	c0.238-0.179,0.535-0.476,0.833-0.714c0.237-0.297,0.476-0.595,0.772-0.951c0.595-0.594,1.011-1.188,1.189-1.427
	c-0.357,0.476-0.714,0.951-1.189,1.486c0.238-0.237,0.535-0.594,0.714-1.011c0.356-0.356,0.654-0.832,0.951-1.308
	c0.654-1.011,1.189-2.021,1.546-2.735c-0.416,0.833-0.833,1.665-1.427,2.557c-0.476,0.892-1.07,1.665-1.784,2.497
	c-0.653,0.833-1.427,1.665-2.259,2.2c-0.357,0.297-0.892,0.595-1.428,0.772c-0.178,0.119-0.475,0.238-0.653,0.298
	c-0.179,0-0.297,0.06-0.416,0.06s-0.238,0.059-0.417,0.059v-0.059h-0.059h0.059h-0.059c-0.357-0.06-0.714-0.238-1.011-0.476
	c-0.179-0.298-0.357-0.654-0.536-1.011c-0.237-0.357-0.178-0.773-0.297-1.189s-0.119-0.832-0.119-1.248
	c-0.059-0.773-0.059-1.606,0.06-2.498c0.06-0.832,0.179-1.605,0.298-2.438c0.118-0.832,0.297-1.605,0.534-2.438l0.061-0.119v-0.119
	c0,0,0-0.06,0,0v-0.06l0.059-0.297c0.06-0.179,0.06-0.356,0.119-0.595c0.06-0.356,0.119-0.714,0.238-1.129
	c0.118-0.773,0.297-1.547,0.356-2.379c0.06-0.297,0.119-0.713,0.06-1.07c0-0.356,0.119-0.713,0-1.07c0.06,0.179-0.06,0.535,0,1.13
	c0,0.535-0.119,1.13-0.238,1.902c-0.118,0.773-0.237,1.605-0.416,2.379c0,0.237-0.06,0.416-0.06,0.653
	c0,0.061-0.06,0.179-0.118,0.298v0.119v0.118v0.06c-0.179,0.417-0.238,0.833-0.357,1.189c-0.179,0.713-0.476,2.259-0.653,4.103
	c-0.06,0.476-0.06,0.951-0.06,1.486c0,0.476,0.06,1.011,0.06,1.546c0.118,0.535,0.178,1.07,0.356,1.546
	c0.118,0.238,0.238,0.476,0.416,0.714c0.06,0.237,0.178,0.416,0.416,0.594c0.238,0.179,0.535,0.356,0.833,0.356v0.06h0.059
	c0.119,0,0.179,0,0.298-0.06h0.179c0.178-0.059,0.356-0.059,0.476-0.118c0.356-0.119,0.653-0.238,0.951-0.416
	c0.713-0.298,1.248-0.714,1.783-1.13c1.07-0.951,2.081-2.2,2.854-3.39c0.416-0.653,0.772-1.308,1.13-1.961
	c0.356-0.595,0.713-1.249,0.95-1.903c0.595-1.248,1.13-2.438,1.428-3.567c0.416-0.951,0.713-2.021,1.07-2.794V90.47h-0.06h-0.298
	h0.298H215.935z M206.719,77.746c-0.119,0.06-0.476,0.595-0.654,1.011c-0.237,0.119-0.535,0.772-0.713,0.892
	c0.059-0.06,0.059-0.178,0.178-0.357c-0.06,0.119-0.178,0.297-0.297,0.417c-0.06,0.119-0.298,0.476-0.357,0.654
	c-0.297,0.356-0.476,0.653-0.772,1.011c0.06-0.06,0.178-0.298,0.178-0.298c-0.118,0.179-0.356,0.535-0.476,0.595
	c0.06-0.06,0.119-0.178,0.238-0.297c-0.179,0.178-0.357,0.713-0.535,0.892c0.297-0.595,0.892-1.427,1.308-2.2
	c0.477-0.832,1.012-1.724,1.486-2.497c-0.059,0.059-0.178,0.238-0.297,0.416c-0.119,0.238-0.237,0.535-0.416,0.714
	c-0.179,0.178-0.476,0.892-0.951,1.486c-0.535,0.892-1.13,1.963-1.605,2.735c0,0.059-0.06,0.178-0.119,0.237
	c0,0.119-0.06,0.238-0.119,0.297C202.794,83.453,204.935,80.719,206.719,77.746z M202.913,83.097
	c0.654-1.069,1.367-2.259,1.962-3.27c0-0.119-0.06,0.06-0.118,0.06c0.059-0.119,0.237-0.298,0.237-0.357
	c-0.119,0.119-0.237,0.357-0.297,0.535c0.118-0.356,0.356-0.713,0.595-1.249c-0.119,0.119-0.298,0.476-0.417,0.654
	c-0.06,0.059,0-0.238,0-0.297c0.179-0.357,0.298-0.654,0.477-0.951c0.237-0.416,0.534-1.07,0.892-1.665
	c0.297-0.476,0.476-0.892,0.713-1.368c0.298-0.357,0.476-0.832,0.714-1.249c0.237-0.416,0.416-0.892,0.476-1.308
	c0.119-0.179,0.179-0.357,0.237-0.535v-0.179V71.86c-0.059,0,0,0,0,0l-0.059-0.059h-0.06v-0.06l0.06,0.06c-0.06,0-0.06,0-0.06-0.06
	h-0.06c0-0.06,0,0-0.06-0.06h-0.06v0.06h-0.06c-0.06,0.06-0.06,0.06-0.119,0.06l-0.06,0.059v0.059
	c-0.118,0.06-0.297,0.179-0.416,0.357c-0.297,0.357-0.476,0.773-0.654,1.189c-0.237,0.416-0.476,0.832-0.594,1.248
	c-0.476,0.952-0.951,2.2-1.368,3.27c-0.356,0.892-0.653,1.844-0.892,2.498c-0.06,0.297-0.238,0.653-0.416,1.011
	c-0.06,0.237-0.06,0.297-0.119,0.416c0,0.06,0.06-0.06,0-0.06c-0.059,0.298-0.119,0.535-0.119,0.535c0-0.06,0-0.06,0.061-0.179
	c0-0.119-0.061,0.179-0.061,0.179c0-0.06,0-0.179,0.061-0.298c-0.061,0.238-0.12,0.238-0.238,0.535c0,0,0-0.06,0.06-0.06
	c-0.06,0-0.06,0.06-0.06,0.179c0-0.119-0.06,0.06-0.06,0.119c0,0,0-0.06,0.06-0.119c0,0-0.06,0.06-0.06,0.119v0.06h-0.06
	c0,0.119,0.06-0.119,0.119-0.179c-0.06,0.06-0.119,0.179-0.119,0.237C202.973,83.038,202.973,83.097,202.913,83.097z
	 M203.627,81.016c0.059-0.237,0.119-0.416,0.119-0.594c0.059-0.119,0.118-0.298,0.178-0.476
	C203.805,80.303,203.686,80.778,203.627,81.016z M203.746,94.215v0.06 M203.924,79.708c0.179-0.297,0.356-0.951,0.476-1.308
	C204.222,78.816,204.103,79.292,203.924,79.708z M204.519,70.909c0.238-0.179,0.416-0.417,0.595-0.595
	c0.06-0.06,0.119-0.119,0.179-0.178c0,0,0-0.06,0.06-0.119c0.059-0.059,0.178-0.119,0.237-0.178c0-0.06,0-0.06,0.179-0.179
	c-0.06,0.06-0.476,0.417-0.773,0.773c-0.297,0.416-0.832,0.832-1.011,1.188C203.864,71.682,204.103,71.325,204.519,70.909z
	 M204.757,105.868h-0.06c0.06,0,0.06,0,0.06,0.06V105.868z M204.757,105.928h0.059 M204.815,105.928h-0.059 M206.54,72.692
	c0.06-0.06,0.237-0.297,0.298-0.417c0-0.06-0.179,0.238-0.298,0.357V72.692z M206.6,98.972v1.189c0.06,0.416,0.06,0.772,0.178,1.07
	c0.179,0.237,0.417,0.416,0.595,0.535c0.238,0.119,0.476,0.119,0.654,0.119c-0.297,0.059-0.535-0.06-0.772-0.179
	c-0.179-0.179-0.357-0.298-0.477-0.476c-0.118-0.238-0.118-0.535-0.118-0.773c-0.06-0.297-0.06-0.594-0.06-0.832
	c0-0.951,0.178-1.902,0.356-2.794C206.838,97.485,206.659,98.259,206.6,98.972z M207.313,95.345c0-0.119,0.118-0.237,0.118-0.356
	c0.238-0.832,0.595-1.902,0.893-3.032c0.178-0.714,0.356-1.427,0.416-2.081c0.178-0.594,0.237-1.189,0.297-1.724
	c-0.119,1.248-0.297,2.438-0.654,3.686c-0.237,0.595-0.416,1.189-0.535,1.783c-0.178,0.417-0.237,0.893-0.416,1.368
	C207.432,95.107,207.313,95.226,207.313,95.345z"/>
</svg>
